<svg width="70" height="28" viewBox="0 0 70 28" fill="none" xmlns="http://www.w3.org/2000/svg">
<g clip-path="url(#clip0)">
<path fill-rule="evenodd" clip-rule="evenodd" d="M71.9797 2.24114C71.9778 2.2495 71.9787 2.28004 71.9817 2.30931C71.9868 2.35749 71.9456 2.36258 71.5331 2.36603C71.2835 2.36821 71.065 2.3733 71.048 2.37748C71.0308 2.38167 70.9831 2.38676 70.9417 2.38876C70.8828 2.39185 70.8703 2.40548 70.883 2.45311C70.8974 2.50674 70.1386 2.556 69.9137 2.51601C69.872 2.50874 69.7687 2.60927 69.7876 2.63908C69.797 2.65344 69.6035 2.66689 69.3583 2.66889C68.6662 2.67471 68.6806 2.67308 68.6219 2.74706C68.5718 2.81015 68.5433 2.81396 68.0702 2.82014C67.5626 2.82687 67.482 2.83505 67.5088 2.87704C67.549 2.94031 67.4092 2.9643 66.9505 2.97248C66.506 2.98048 66.4534 2.98703 66.4405 3.03538C66.4325 3.0652 66.396 3.09083 66.3595 3.09247C66.3229 3.0941 66.1182 3.10046 65.9047 3.10665C65.6913 3.11283 65.4988 3.12446 65.4771 3.13264C65.4552 3.14082 65.4292 3.13428 65.4189 3.1181C65.3977 3.08501 65.3107 3.15755 65.3107 3.20845C65.3107 3.24535 65.3287 3.24353 64.8275 3.25735C64.3568 3.27026 64.1882 3.29334 64.1882 3.34534C64.1882 3.40333 64.1284 3.41024 63.6349 3.40878C63.3905 3.40805 63.1905 3.41623 63.1905 3.42678C63.1904 3.46295 63.0379 3.47441 63.0005 3.44096C62.9728 3.41623 62.9688 3.41733 62.9851 3.4455C62.9978 3.46732 62.9898 3.4835 62.9662 3.48386C62.9333 3.48422 62.9333 3.48913 62.967 3.50986C63.0315 3.54949 62.9421 3.55912 62.5045 3.55912C62.2901 3.55912 62.1077 3.56785 62.0991 3.57857C62.0905 3.58948 62.0486 3.60312 62.0056 3.60893C61.9627 3.61493 61.9128 3.63802 61.8946 3.66056C61.8718 3.68874 61.7571 3.7051 61.5205 3.71346C61.3328 3.72001 61.1412 3.73037 61.0945 3.73655C61.0477 3.74255 61.017 3.73582 61.0262 3.72146C61.0567 3.67329 60.9996 3.69492 60.9543 3.74837C60.9298 3.77763 60.9186 3.78436 60.9295 3.76364C60.9403 3.74273 60.9343 3.72564 60.9162 3.72564C60.898 3.72564 60.8831 3.736 60.8831 3.74873C60.8831 3.83617 60.6627 3.86835 59.9944 3.87835C59.8223 3.88089 59.6947 3.90761 59.7134 3.93706C59.7419 3.98197 59.624 4.00614 59.3241 4.01742C58.836 4.03541 58.767 4.03469 58.7281 4.01142C58.7028 3.99633 58.6991 4.00196 58.7165 4.02923C58.7352 4.05868 58.7275 4.06395 58.6871 4.04887C58.6482 4.03432 58.6276 4.04596 58.616 4.08922C58.607 4.12249 58.5838 4.15085 58.5644 4.15212C58.5449 4.1534 58.3816 4.16012 58.2016 4.16703C58.0215 4.17394 57.8117 4.18594 57.7352 4.19357C57.6583 4.20139 57.5781 4.19284 57.5553 4.17448C57.5242 4.1494 57.5182 4.15158 57.5302 4.18339C57.5678 4.28265 57.4991 4.30392 57.092 4.31828C56.8705 4.32628 56.6513 4.33737 56.6045 4.343C56.5577 4.34882 56.5271 4.34173 56.5362 4.32737C56.562 4.28683 56.5074 4.29683 56.4354 4.34573C56.3995 4.37009 56.3613 4.38154 56.3505 4.371C56.3396 4.36045 56.3308 4.36936 56.3308 4.391C56.3308 4.4219 56.3198 4.42135 56.278 4.38845C56.249 4.36554 56.2348 4.36227 56.2466 4.38118C56.2887 4.44971 56.1832 4.46935 55.7774 4.46862C55.5501 4.46826 55.3643 4.4768 55.3642 4.48771C55.3642 4.49862 55.3236 4.50461 55.2736 4.50134C55.2016 4.49643 55.1853 4.50643 55.1939 4.54988C55.2063 4.61187 55.2192 4.60914 54.8654 4.61842C54.7195 4.62241 54.5223 4.62987 54.4269 4.63532C54.3315 4.64078 54.2366 4.63514 54.2164 4.62296C54.196 4.61078 54.1794 4.61514 54.1794 4.63278C54.1794 4.65059 54.1477 4.66586 54.1092 4.66714C54.0439 4.66913 54.0432 4.67077 54.1002 4.6924C54.202 4.73113 54.0187 4.76567 53.6744 4.77257C53.316 4.77985 53.1644 4.80366 53.1506 4.85474C53.1007 5.03708 53.1246 22.8089 53.1747 22.9045C53.2054 22.9629 53.2462 23.0076 53.2657 23.004C53.2849 23.0003 53.6531 22.996 54.0836 22.9945L54.8665 22.9916L54.9152 22.9194C54.9887 22.8104 54.9851 23.1065 54.9877 16.9889L54.99 11.2398H56.3931H57.7962V17.0402V22.8405L57.8664 22.9187L57.9365 22.9971H61.1326H64.3286L64.3987 22.9187L64.4689 22.8405V15.9243V9.00811L64.3968 8.94248L64.325 8.87686L61.9882 8.86904L59.6515 8.86122V7.78575V6.7101H65.8875C70.0086 6.7101 72.1316 6.69973 72.1471 6.67974C72.1617 6.66065 72.183 6.66629 72.2045 6.69501C72.2335 6.73373 72.2361 6.73264 72.2215 6.68828C72.212 6.65974 72.218 6.62811 72.2346 6.61811C72.2513 6.60811 72.2569 6.58721 72.247 6.57157C72.2371 6.55612 72.2492 6.54339 72.2739 6.54339C72.3882 6.54339 72.3905 6.50267 72.3892 4.50334C72.3877 2.41675 72.3851 2.36221 72.2876 2.36221C72.2401 2.36221 72.2287 2.3464 72.2389 2.29404C72.2511 2.23169 71.9944 2.17915 71.9797 2.24114ZM57.7962 7.55851V8.99757H56.3931H54.99V7.55851V6.11928H56.3931H57.7962V7.55851ZM72.2021 8.86122C72.2017 8.88122 71.3817 8.88904 69.79 8.88431L67.3784 8.87704L67.3423 8.95394C67.3153 9.01138 67.3063 10.7818 67.3063 15.9525V22.8744H67.4882C67.6485 22.8744 67.6747 22.8656 67.7103 22.8011C67.7323 22.7609 67.778 22.7209 67.8113 22.7124C67.8448 22.704 67.8798 22.6688 67.8891 22.6342C67.9003 22.5922 67.9314 22.5713 67.9817 22.5713C68.0234 22.5713 68.0885 22.5391 68.1263 22.4997C68.1639 22.4604 68.2249 22.4192 68.2618 22.4079C68.2984 22.3966 68.3357 22.3606 68.3445 22.3279C68.3534 22.2952 68.3867 22.2683 68.4189 22.2683C68.4709 22.2683 68.5441 22.217 68.7579 22.0307C68.7931 21.9999 68.8597 21.9658 68.9057 21.9545C68.9519 21.9432 68.988 21.924 68.9862 21.9118C68.9753 21.8438 69 21.8165 69.0896 21.7974C69.1953 21.7749 69.2806 21.7124 69.2484 21.6811C69.2378 21.6707 69.2604 21.6624 69.2988 21.6624C69.3697 21.6624 69.4862 21.5751 69.4578 21.5433C69.4492 21.5338 69.4724 21.5218 69.5094 21.5167C69.5502 21.5111 69.5841 21.4784 69.5957 21.4333C69.6101 21.3779 69.6361 21.3591 69.7001 21.3584C69.7906 21.3573 69.8942 21.2973 69.8942 21.2459C69.8942 21.229 69.9234 21.2075 69.959 21.1984C69.9945 21.1895 70.0308 21.1552 70.0398 21.1221C70.0503 21.083 70.0927 21.0554 70.1618 21.0428C70.22 21.0321 70.2823 20.9968 70.3004 20.9641C70.3191 20.9301 70.3655 20.9048 70.4093 20.9048C70.4637 20.9048 70.4908 20.8841 70.5043 20.8321C70.518 20.7789 70.5517 20.754 70.6293 20.7398C70.6877 20.7292 70.7496 20.6947 70.767 20.6632C70.7842 20.6318 70.837 20.6016 70.8843 20.5963C70.9456 20.5894 70.9728 20.5674 70.9799 20.5185C70.9868 20.4718 71.0113 20.4504 71.0579 20.45C71.163 20.4495 71.2672 20.416 71.2497 20.3884C71.2296 20.3571 71.361 20.2658 71.396 20.2868C71.4104 20.2955 71.4221 20.2873 71.4221 20.2686C71.4221 20.25 71.4349 20.2424 71.4504 20.2517C71.4659 20.2611 71.4713 20.2415 71.4624 20.208C71.4487 20.1573 71.4612 20.1475 71.5406 20.1475C71.6594 20.1475 71.7387 20.119 71.7166 20.0841C71.6972 20.0537 71.8891 19.9314 71.9237 19.9521C71.9361 19.9595 71.9391 19.9384 71.9301 19.9052C71.9164 19.8543 71.9289 19.8445 72.0083 19.8445C72.1334 19.8445 72.2015 19.817 72.2015 19.7665C72.2015 19.7439 72.2296 19.7108 72.264 19.693C72.2982 19.6752 72.3263 19.6405 72.3263 19.6161C72.3263 19.5918 72.34 19.5718 72.3564 19.5718C72.3731 19.5718 72.3787 19.5514 72.3688 19.5263C72.3589 19.5012 72.3663 19.4809 72.3854 19.4809C72.4043 19.4809 72.4199 19.4665 72.4199 19.4487C72.4199 19.4311 72.4094 19.4231 72.3965 19.4307C72.3836 19.4385 72.38 17.1227 72.3886 14.2848C72.3972 11.4466 72.3927 9.13155 72.3789 9.13991C72.3649 9.14827 72.3577 9.13082 72.3632 9.10119C72.3695 9.06701 72.3489 9.04083 72.3074 9.02993C72.2698 9.02011 72.2451 8.99193 72.2494 8.96375C72.2537 8.93685 72.2449 8.89595 72.23 8.87286C72.2148 8.84977 72.2023 8.84468 72.2021 8.86122Z" fill="#122120"/>
<path fill-rule="evenodd" clip-rule="evenodd" d="M72.2949 2.2458C72.3207 2.26816 72.36 2.30688 72.3825 2.33197C72.4169 2.37014 72.4188 2.36542 72.3946 2.30161C72.3787 2.25998 72.3394 2.22126 72.3071 2.21562C72.2556 2.20653 72.2541 2.21035 72.2949 2.2458ZM69.6324 2.56157C69.6041 2.63338 69.6093 2.66519 69.6498 2.66519C69.6698 2.66519 69.6771 2.65628 69.666 2.64555C69.6548 2.63465 69.6758 2.60065 69.7124 2.56975C69.7783 2.51412 69.7785 2.51376 69.715 2.51376C69.6801 2.51376 69.6428 2.53521 69.6324 2.56157ZM64.1024 3.26219C64.0558 3.27091 64.0323 3.29709 64.0323 3.33963C64.0323 3.39417 64.0381 3.39726 64.0712 3.36035C64.0927 3.33618 64.1305 3.29964 64.1554 3.27873C64.1802 3.25783 64.1943 3.24274 64.1866 3.24492C64.1787 3.24728 64.141 3.2551 64.1024 3.26219ZM63.0033 3.41744C63.0033 3.43125 63.0454 3.43653 63.0968 3.42907C63.1483 3.4218 63.1904 3.41053 63.1904 3.40398C63.1904 3.39762 63.1483 3.39235 63.0968 3.39235C63.0454 3.39235 63.0033 3.40362 63.0033 3.41744ZM61.8885 3.56396C61.8672 3.57232 61.8496 3.5925 61.8496 3.60868C61.8496 3.62504 61.8659 3.6285 61.8859 3.6165C61.9057 3.6045 61.9654 3.58468 62.0183 3.57232L62.1147 3.54996L62.0211 3.54942C61.9697 3.54887 61.91 3.55542 61.8885 3.56396ZM60.778 3.71939C60.7696 3.73248 60.8107 3.73775 60.8696 3.73121C60.9284 3.72448 60.9765 3.71376 60.9765 3.70721C60.9765 3.68431 60.7929 3.69558 60.778 3.71939ZM58.4387 4.07661C58.4131 4.14115 58.4146 4.14987 58.4509 4.14987C58.4681 4.14987 58.4786 4.13278 58.4743 4.11188C58.4699 4.09115 58.484 4.07752 58.5055 4.0817C58.527 4.08588 58.5444 4.07552 58.5444 4.05898C58.5444 4.01007 58.4593 4.02425 58.4387 4.07661ZM57.3467 4.22986C57.3359 4.25731 57.334 4.28658 57.3426 4.29476C57.3512 4.30312 57.3669 4.28767 57.3778 4.2604C57.3884 4.23313 57.4099 4.21822 57.4253 4.2275C57.4406 4.23677 57.4532 4.22986 57.4532 4.21223C57.4532 4.16096 57.3682 4.17514 57.3467 4.22986ZM53.1299 4.8025C53.1198 4.82831 53.1202 4.85776 53.1308 4.86813C53.1415 4.87849 53.1503 4.8654 53.1503 4.83886C53.1503 4.81232 53.1748 4.78432 53.2049 4.77668C53.256 4.7636 53.256 4.7625 53.2038 4.75923C53.1733 4.75741 53.14 4.77687 53.1299 4.8025ZM2.44069 5.53348C2.42928 5.54457 2.41992 9.48506 2.41992 14.29V23.0263L3.87766 23.0184L5.3354 23.0106L5.34363 22.2607L5.35205 21.5109H5.4295C5.49667 21.5109 5.50677 21.5243 5.50677 21.6143C5.50677 21.7561 5.53427 21.8137 5.60162 21.8137C5.63679 21.8137 5.66223 21.8397 5.66841 21.8819C5.67458 21.9252 5.70339 21.9535 5.74661 21.9595C5.78907 21.9655 5.81845 21.9941 5.82443 22.0353C5.83061 22.0766 5.85998 22.1051 5.90245 22.1111C5.94491 22.1169 5.97429 22.1455 5.98046 22.1868C5.98645 22.2278 6.01582 22.2567 6.05735 22.2624C6.09832 22.268 6.132 22.3007 6.14378 22.3458C6.16043 22.4104 6.18045 22.4198 6.30261 22.4198C6.43077 22.4198 6.44218 22.426 6.44218 22.4954C6.44218 22.5554 6.45789 22.5712 6.51794 22.5712C6.57295 22.5712 6.59652 22.5901 6.60381 22.6394C6.61223 22.6974 6.63543 22.709 6.75984 22.7167C6.88313 22.7245 6.90764 22.7363 6.91587 22.7925C6.92391 22.8487 6.94842 22.8605 7.07058 22.8681C7.19499 22.8759 7.21857 22.8879 7.23503 22.9515C7.25299 23.0212 7.26702 23.0257 7.46832 23.0257C7.67093 23.0257 7.68384 23.0299 7.70217 23.1015L7.72182 23.1771H8.32702C8.93092 23.1771 8.93242 23.1773 8.94234 23.2453C8.95169 23.3102 8.96553 23.3135 9.23287 23.3135C9.49404 23.3135 9.51555 23.3088 9.54436 23.2453C9.57448 23.1786 9.58571 23.1771 10.0972 23.1771H10.6191L10.6384 23.1028C10.6564 23.0334 10.6732 23.0277 10.8807 23.0194C11.085 23.0114 11.1044 23.0048 11.1136 22.9425C11.1228 22.8797 11.14 22.8743 11.3248 22.8743C11.511 22.8743 11.5284 22.8685 11.5559 22.7985C11.5807 22.7349 11.6056 22.7227 11.7117 22.7227C11.8178 22.7227 11.8427 22.7105 11.8675 22.647C11.8885 22.5938 11.9207 22.5712 11.9761 22.5712C12.0391 22.5712 12.0546 22.5563 12.0546 22.4954C12.0546 22.426 12.0662 22.4198 12.1944 22.4198C12.3175 22.4198 12.3364 22.4107 12.3538 22.344C12.3678 22.2896 12.3944 22.2682 12.4479 22.2682C12.5066 22.2682 12.5223 22.2522 12.5223 22.1926C12.5223 22.1319 12.538 22.1168 12.6003 22.1168C12.6626 22.1168 12.6784 22.1017 12.6784 22.041C12.6784 21.9728 12.6907 21.9653 12.8037 21.9653C12.909 21.9653 12.9341 21.953 12.959 21.8895C12.9753 21.8479 13.0102 21.8137 13.0368 21.8137C13.0634 21.8137 13.0985 21.7797 13.1148 21.7381C13.1311 21.6965 13.1663 21.6623 13.1928 21.6623C13.2465 21.6623 13.3019 21.5461 13.3019 21.4331C13.3019 21.3745 13.318 21.3592 13.3799 21.3592C13.4422 21.3592 13.4577 21.3442 13.4577 21.2836C13.4577 21.2229 13.4735 21.2078 13.5358 21.2078C13.598 21.2078 13.6138 21.1927 13.6138 21.132C13.6138 21.078 13.6306 21.0564 13.6727 21.0564C13.7421 21.0564 13.7696 20.9997 13.7696 20.857C13.7696 20.7666 13.7795 20.7533 13.8476 20.7533C13.9099 20.7533 13.9254 20.7382 13.9254 20.6775C13.9254 20.6299 13.9432 20.6019 13.973 20.6019C14.0263 20.6019 14.0815 20.485 14.0815 20.3727C14.0815 20.3207 14.0987 20.2989 14.1398 20.2989C14.2057 20.2989 14.2373 20.1945 14.2373 19.9769C14.2373 19.8558 14.244 19.8444 14.3153 19.8444C14.3868 19.8444 14.3931 19.8333 14.3931 19.708C14.3931 19.633 14.4062 19.5717 14.4221 19.5717C14.5043 19.5717 14.5492 19.4695 14.5492 19.2817C14.5492 19.1114 14.5565 19.0869 14.6075 19.0869C14.6833 19.0869 14.705 18.9811 14.705 18.6135C14.705 18.3497 14.7095 18.3295 14.7673 18.3295C14.8655 18.3295 14.8655 15.2122 14.7673 15.1873C14.711 15.1729 14.705 15.1458 14.705 14.906C14.705 14.557 14.6824 14.4512 14.6075 14.4512C14.5565 14.4512 14.5492 14.4267 14.5492 14.2565C14.5492 14.0687 14.5043 13.9666 14.4221 13.9666C14.4062 13.9666 14.3931 13.9137 14.3931 13.8491C14.3931 13.6519 14.3598 13.5423 14.2998 13.5423C14.2581 13.5423 14.2405 13.5072 14.2246 13.3908C14.2083 13.2714 14.1918 13.2394 14.1468 13.2394C14.1015 13.2394 14.085 13.2074 14.0687 13.0878C14.0519 12.9642 14.0368 12.9363 13.9868 12.9363C13.9423 12.9363 13.9254 12.9156 13.9254 12.8605C13.9254 12.8011 13.9097 12.7849 13.8515 12.7849C13.7864 12.7849 13.7752 12.7669 13.7569 12.6333C13.7404 12.5119 13.7245 12.4819 13.6772 12.4819C13.6396 12.4819 13.6143 12.457 13.6082 12.4137C13.6016 12.3699 13.573 12.3421 13.5279 12.3359C13.4772 12.3288 13.4577 12.3059 13.4577 12.2525C13.4577 12.1941 13.4416 12.1788 13.3799 12.1788C13.3174 12.1788 13.3019 12.1637 13.3019 12.1032C13.3019 12.0425 13.2864 12.0274 13.2239 12.0274C13.1616 12.0274 13.1461 12.0123 13.1461 11.9516C13.1461 11.8911 13.1303 11.876 13.068 11.876C13.0057 11.876 12.99 11.8607 12.99 11.8002C12.99 11.7402 12.9743 11.7244 12.9143 11.7244C12.8595 11.7244 12.8357 11.7056 12.8286 11.6562C12.8224 11.6135 12.7936 11.5846 12.7513 11.5787C12.7105 11.5731 12.6767 11.5406 12.6651 11.4955C12.6482 11.4308 12.6284 11.4215 12.5062 11.4215C12.3779 11.4215 12.3665 11.4151 12.3665 11.3457C12.3665 11.285 12.351 11.2699 12.2877 11.2699C12.2325 11.2699 12.2002 11.2473 12.1794 11.1943C12.1545 11.1306 12.1295 11.1184 12.0236 11.1184C11.9175 11.1184 11.8924 11.1063 11.8675 11.0426C11.8402 10.9726 11.8226 10.967 11.6367 10.967C11.4517 10.967 11.4346 10.9614 11.4255 10.8988C11.4163 10.8363 11.3968 10.8299 11.1926 10.8218C10.9847 10.8136 10.9682 10.8078 10.9501 10.7381L10.9308 10.6632L9.62967 10.6712L8.32871 10.6791L8.31861 10.7472C8.30906 10.8125 8.29578 10.8154 8.01535 10.8154C7.72818 10.8154 7.72144 10.817 7.70217 10.8912C7.68477 10.959 7.66681 10.967 7.53024 10.967C7.38825 10.967 7.37758 10.9723 7.37758 11.0426C7.37758 11.1134 7.3673 11.1184 7.22175 11.1184C7.07713 11.1184 7.06591 11.1239 7.06591 11.1926C7.06591 11.2593 7.0515 11.2675 6.91774 11.2759C6.79127 11.2837 6.76826 11.2951 6.75965 11.3533C6.75254 11.4026 6.72879 11.4215 6.67397 11.4215C6.61392 11.4215 6.5982 11.4371 6.5982 11.4971C6.5982 11.5655 6.58567 11.5729 6.47267 11.5729C6.36753 11.5729 6.34228 11.5851 6.31758 11.6487C6.3013 11.6904 6.26613 11.7244 6.23957 11.7244C6.213 11.7244 6.17783 11.7585 6.16155 11.8002C6.14528 11.8418 6.11029 11.876 6.08373 11.876C6.05716 11.876 6.02199 11.91 6.00572 11.9516C5.98944 11.9934 5.95427 12.0274 5.92752 12.0274C5.90076 12.0274 5.86634 12.0581 5.85081 12.0956C5.83379 12.1368 5.82181 10.853 5.82069 8.83843L5.81863 5.5133H4.14014C3.21689 5.5133 2.45229 5.52239 2.44069 5.53348ZM35.7102 5.53348C35.6988 5.54457 35.6894 6.94199 35.6894 8.639V11.7244H35.6114C35.5491 11.7244 35.5334 11.7093 35.5334 11.6487C35.5334 11.588 35.5178 11.5729 35.4555 11.5729C35.3931 11.5729 35.3775 11.5578 35.3775 11.4971C35.3775 11.4371 35.3618 11.4215 35.3018 11.4215C35.2469 11.4215 35.2232 11.4026 35.2161 11.3533C35.2075 11.2951 35.1843 11.2837 35.058 11.2759C34.9242 11.2675 34.9098 11.2593 34.9098 11.1926C34.9098 11.1239 34.8984 11.1184 34.754 11.1184C34.6084 11.1184 34.598 11.1134 34.598 11.0426C34.598 10.9719 34.5877 10.967 34.4421 10.967C34.2966 10.967 34.2863 10.9619 34.2863 10.8912C34.2863 10.8172 34.2809 10.8154 34.0545 10.8154C33.838 10.8154 33.8221 10.811 33.813 10.7472L33.8029 10.6791H32.431H31.0591L31.049 10.7472C31.0399 10.811 31.024 10.8154 30.8075 10.8154C30.5823 10.8154 30.5757 10.8176 30.5757 10.8899C30.5757 10.9612 30.5665 10.9646 30.3497 10.9732C30.1439 10.9814 30.1228 10.9881 30.114 11.0486C30.1058 11.1048 30.0812 11.1166 29.958 11.1244C29.8336 11.1323 29.8104 11.1437 29.8019 11.2017C29.7946 11.2512 29.7711 11.2699 29.7161 11.2699C29.656 11.2699 29.6403 11.2857 29.6403 11.3457C29.6403 11.4164 29.63 11.4215 29.4845 11.4215C29.3389 11.4215 29.3286 11.4264 29.3286 11.4971C29.3286 11.5578 29.3129 11.5729 29.2506 11.5729C29.1883 11.5729 29.1726 11.588 29.1726 11.6487C29.1726 11.7093 29.1571 11.7244 29.0948 11.7244C29.0323 11.7244 29.0168 11.7396 29.0168 11.8002C29.0168 11.8696 29.0053 11.876 28.877 11.876C28.7541 11.876 28.735 11.8849 28.7178 11.9516C28.7056 11.9987 28.6761 12.0274 28.6398 12.0274C28.6035 12.0274 28.5739 12.0561 28.5618 12.1032C28.5502 12.1485 28.5201 12.1788 28.4866 12.1788C28.4205 12.1788 28.3932 12.2374 28.3932 12.3783C28.3932 12.4686 28.3831 12.4819 28.3152 12.4819C28.2529 12.4819 28.2372 12.497 28.2372 12.5577C28.2372 12.6182 28.2217 12.6333 28.1594 12.6333C28.0969 12.6333 28.0813 12.6486 28.0813 12.7091C28.0813 12.7696 28.0658 12.7849 28.0033 12.7849C27.9321 12.7849 27.9255 12.7962 27.9255 12.9191C27.9255 13.0352 27.916 13.0547 27.8554 13.0631C27.805 13.07 27.7824 13.0963 27.7753 13.156C27.7685 13.213 27.7474 13.2394 27.7085 13.2394C27.6411 13.2394 27.6136 13.297 27.6136 13.4388C27.6136 13.5201 27.6011 13.5423 27.5545 13.5423C27.4791 13.5423 27.4578 13.5992 27.4578 13.8002C27.4578 13.9453 27.4503 13.9633 27.3877 13.972C27.328 13.9802 27.316 14.0027 27.3081 14.1227C27.3001 14.2434 27.2877 14.2663 27.2223 14.2823C27.148 14.3005 27.1459 14.3087 27.1459 14.5861C27.1459 14.8588 27.1429 14.8717 27.0758 14.881C27.009 14.8901 27.0053 14.9053 26.9968 15.1991C26.9884 15.4916 26.9843 15.5083 26.9188 15.5172L26.8498 15.5269L26.8416 17.0032L26.8335 18.4797L26.9117 18.4988C26.9899 18.5179 26.9901 18.5188 26.9901 18.8776C26.9901 19.2359 26.9903 19.2374 27.0679 19.2563C27.1416 19.2743 27.1459 19.2867 27.1459 19.4835C27.1459 19.6804 27.1502 19.6928 27.224 19.7108C27.2949 19.728 27.3018 19.7442 27.3018 19.8906C27.3018 20.0894 27.3233 20.1474 27.397 20.1474C27.4432 20.1474 27.4561 20.1751 27.4638 20.2912C27.4718 20.413 27.484 20.4367 27.5418 20.4447C27.5979 20.4525 27.612 20.4768 27.6198 20.581C27.6271 20.6784 27.6454 20.7148 27.6993 20.7379C27.7424 20.7561 27.7695 20.7942 27.7695 20.8362C27.7695 20.8891 27.7873 20.9048 27.8475 20.9048C27.9203 20.9048 27.9255 20.9149 27.9255 21.0564C27.9255 21.1976 27.9306 21.2078 28.0033 21.2078C28.0658 21.2078 28.0813 21.2229 28.0813 21.2836C28.0813 21.3442 28.0969 21.3592 28.1594 21.3592C28.2217 21.3592 28.2372 21.3745 28.2372 21.4351C28.2372 21.4956 28.2529 21.5109 28.3152 21.5109C28.3831 21.5109 28.3932 21.5241 28.3932 21.6143C28.3932 21.7554 28.4205 21.8137 28.4866 21.8137C28.5201 21.8137 28.5502 21.8441 28.5618 21.8895C28.5739 21.9366 28.6035 21.9653 28.6398 21.9653C28.6761 21.9653 28.7056 21.9939 28.7178 22.041C28.735 22.1077 28.7541 22.1168 28.877 22.1168C29.0053 22.1168 29.0168 22.1229 29.0168 22.1926C29.0168 22.2531 29.0323 22.2682 29.0948 22.2682C29.1571 22.2682 29.1726 22.2835 29.1726 22.344C29.1726 22.404 29.1883 22.4198 29.2484 22.4198C29.3034 22.4198 29.3269 22.4385 29.3342 22.488C29.3427 22.5462 29.3659 22.5574 29.4923 22.5652C29.6259 22.5736 29.6403 22.5818 29.6403 22.6487C29.6403 22.7174 29.6517 22.7227 29.7963 22.7227C29.9417 22.7227 29.9522 22.7278 29.9522 22.7985C29.9522 22.8692 29.9626 22.8743 30.108 22.8743C30.2536 22.8743 30.264 22.8792 30.264 22.9499C30.264 23.0239 30.2693 23.0257 30.4956 23.0257C30.7121 23.0257 30.728 23.0303 30.7373 23.0939C30.7471 23.1612 30.7542 23.1622 31.2831 23.1704C31.8103 23.1784 31.819 23.1797 31.8288 23.246C31.8379 23.3095 31.8557 23.314 32.127 23.3222L32.4155 23.3309V23.2548V23.1784L33.0312 23.1702C33.6395 23.1622 33.6472 23.1613 33.6568 23.0952C33.6657 23.0343 33.6867 23.0275 33.8906 23.0194C34.096 23.0114 34.1155 23.0048 34.1246 22.9425C34.1334 22.8823 34.1527 22.8743 34.2883 22.8743C34.4316 22.8743 34.4421 22.869 34.4421 22.7985C34.4421 22.7278 34.4526 22.7227 34.598 22.7227C34.7426 22.7227 34.754 22.7174 34.754 22.6487C34.754 22.5818 34.7684 22.5736 34.902 22.5652C35.0284 22.5574 35.0516 22.5462 35.0601 22.488C35.0673 22.4385 35.0909 22.4198 35.1459 22.4198C35.206 22.4198 35.2217 22.404 35.2217 22.344C35.2217 22.2835 35.2372 22.2682 35.2995 22.2682C35.362 22.2682 35.3775 22.2531 35.3775 22.1926C35.3775 22.1319 35.3931 22.1168 35.4555 22.1168C35.5178 22.1168 35.5334 22.1017 35.5334 22.041C35.5334 21.9804 35.5491 21.9653 35.6114 21.9653C35.6737 21.9653 35.6894 21.9501 35.6894 21.8895C35.6894 21.829 35.7049 21.8137 35.7672 21.8137C35.8297 21.8137 35.8452 21.7986 35.8452 21.7381C35.8452 21.6339 35.9917 21.627 36.0067 21.7305C36.013 21.7741 36.0419 21.8021 36.0862 21.8083C36.155 21.8177 36.1558 21.8234 36.1642 22.4142L36.1726 23.0106L37.6813 23.0184C38.7693 23.0241 39.2019 23.0168 39.2325 22.9921C39.2638 22.9668 39.275 22.8696 39.275 22.6281V22.2986H39.1972H39.1192V13.9058V5.5133H37.4249C36.4933 5.5133 35.7216 5.52239 35.7102 5.53348ZM72.3447 6.61913C72.3029 6.68094 72.3016 6.69494 72.3374 6.69494C72.3615 6.69494 72.3879 6.66076 72.3961 6.61913C72.4043 6.5775 72.4075 6.54332 72.4034 6.54332C72.3991 6.54332 72.3727 6.5775 72.3447 6.61913ZM67.2865 8.8906C67.277 8.91496 67.2763 8.95241 67.285 8.97386C67.294 8.99513 67.3023 8.98313 67.3038 8.94714C67.3051 8.91096 67.3236 8.87461 67.3451 8.86606C67.3756 8.85424 67.3754 8.85025 67.3442 8.84843C67.3221 8.84715 67.2963 8.86606 67.2865 8.8906ZM72.2455 8.86879C72.2584 8.88133 72.2854 8.89206 72.3054 8.89297C72.3254 8.89369 72.3383 8.9106 72.334 8.93078C72.3297 8.95078 72.3402 8.96732 72.3574 8.96732C72.4077 8.96732 72.3931 8.8846 72.3392 8.86442C72.2708 8.83897 72.2175 8.84152 72.2455 8.86879ZM43.817 10.6841C43.8056 10.6952 43.7962 10.7294 43.7962 10.76C43.7962 10.8089 43.7683 10.8154 43.5623 10.8154C43.3337 10.8154 43.3285 10.8172 43.3285 10.8912C43.3285 10.9648 43.3221 10.967 43.1109 10.967C42.9059 10.967 42.892 10.9712 42.8741 11.0412C42.8576 11.1048 42.834 11.1166 42.7096 11.1244C42.5875 11.1321 42.563 11.1441 42.5549 11.2001C42.5469 11.2546 42.5216 11.2682 42.4146 11.2759C42.3141 11.283 42.2769 11.301 42.2532 11.3533C42.2343 11.3951 42.1952 11.4215 42.1518 11.4215C42.0979 11.4215 42.0812 11.4388 42.0812 11.4955C42.0812 11.5609 42.0659 11.5706 41.9488 11.5787C41.8472 11.5858 41.8092 11.6036 41.786 11.6551C41.7694 11.6918 41.7273 11.726 41.6925 11.7307C41.6541 11.7362 41.6253 11.7665 41.6191 11.8078C41.612 11.8571 41.5883 11.876 41.5334 11.876C41.4734 11.876 41.4577 11.8916 41.4577 11.9516C41.4577 12.0123 41.4422 12.0274 41.3797 12.0274C41.3174 12.0274 41.3018 12.0425 41.3018 12.1032C41.3018 12.1637 41.2861 12.1788 41.2238 12.1788C41.1615 12.1788 41.1458 12.1941 41.1458 12.2546C41.1458 12.3152 41.1303 12.3304 41.068 12.3304C41.0055 12.3304 40.99 12.3455 40.99 12.4061C40.99 12.4602 40.9731 12.4819 40.9309 12.4819C40.8616 12.4819 40.8341 12.5386 40.8341 12.6813C40.8341 12.7716 40.824 12.7849 40.7561 12.7849C40.6938 12.7849 40.6781 12.8 40.6781 12.8605C40.6781 12.9213 40.6626 12.9363 40.6003 12.9363C40.5288 12.9363 40.5223 12.9476 40.5223 13.0705C40.5223 13.1867 40.5127 13.2061 40.4521 13.2145C40.4018 13.2214 40.3792 13.2478 40.3721 13.3076C40.3653 13.3645 40.3442 13.3908 40.3053 13.3908C40.2379 13.3908 40.2104 13.4485 40.2104 13.5902C40.2104 13.6717 40.1979 13.6939 40.1515 13.6939C40.0759 13.6939 40.0546 13.7506 40.0546 13.9516C40.0546 14.0967 40.0473 14.1147 39.9844 14.1234C39.9232 14.1318 39.9131 14.1536 39.9049 14.2921C39.897 14.4232 39.8853 14.4512 39.8379 14.4512C39.7594 14.4512 39.7427 14.5088 39.7427 14.7837C39.7427 15.0109 39.7397 15.0211 39.6649 15.0393L39.5869 15.0584V15.4938V15.9293L39.5085 15.9484L39.4301 15.9675L39.4383 16.9288L39.4466 17.8901L39.516 17.8998C39.5835 17.909 39.5854 17.9203 39.5938 18.3542C39.6022 18.7896 39.6039 18.7993 39.6725 18.8087C39.7397 18.818 39.7427 18.8309 39.7427 19.1036C39.7427 19.3825 39.7444 19.3892 39.8207 19.4077C39.8916 19.425 39.8987 19.4414 39.8987 19.5877C39.8987 19.7875 39.9201 19.8444 39.9955 19.8444C40.042 19.8444 40.0546 19.8666 40.0546 19.948C40.0546 20.0898 40.0821 20.1474 40.1496 20.1474C40.1947 20.1474 40.2089 20.1749 40.2164 20.2761C40.2239 20.3756 40.242 20.4118 40.2963 20.4348C40.3393 20.4532 40.3664 20.4912 40.3664 20.5334C40.3664 20.5857 40.3842 20.6019 40.4426 20.6019C40.5114 20.6019 40.5198 20.6159 40.5285 20.7457C40.5365 20.8686 40.5481 20.8911 40.608 20.8993C40.6588 20.9064 40.6781 20.9293 40.6781 20.9828C40.6781 21.0411 40.6944 21.0564 40.7561 21.0564C40.8184 21.0564 40.8341 21.0715 40.8341 21.132C40.8341 21.1927 40.8497 21.2078 40.912 21.2078C40.9745 21.2078 40.99 21.2229 40.99 21.2836C40.99 21.3442 41.0055 21.3592 41.068 21.3592C41.1374 21.3592 41.1458 21.3718 41.1458 21.4745C41.1458 21.6196 41.1898 21.6623 41.3393 21.6623C41.4448 21.6623 41.4577 21.6705 41.4577 21.7381C41.4577 21.7986 41.4732 21.8137 41.5357 21.8137C41.598 21.8137 41.6135 21.829 41.6135 21.8895C41.6135 21.9501 41.6292 21.9653 41.6915 21.9653C41.7538 21.9653 41.7696 21.9804 41.7696 22.041C41.7696 22.1117 41.7798 22.1168 41.9254 22.1168C42.0709 22.1168 42.0812 22.1219 42.0812 22.1926C42.0812 22.2509 42.0973 22.2682 42.1518 22.2682C42.1952 22.2682 42.2343 22.2946 42.2532 22.3364C42.2765 22.3882 42.3143 22.4067 42.4097 22.4136C42.5042 22.4204 42.5429 22.4391 42.5656 22.4893C42.5918 22.5472 42.6239 22.5572 42.8062 22.5651C43.0063 22.5736 43.0166 22.5776 43.0166 22.6483C43.0166 22.7207 43.0232 22.7227 43.2471 22.7227C43.4669 22.7227 43.4785 22.7263 43.4972 22.7985L43.5167 22.8743H44.7322H45.9476V22.7985V22.7227H46.2595H46.5712V22.647C46.5712 22.5763 46.5817 22.5712 46.7272 22.5712C46.8726 22.5712 46.883 22.5662 46.883 22.4954C46.883 22.4247 46.8935 22.4198 47.0389 22.4198C47.1835 22.4198 47.1949 22.4144 47.1949 22.3456C47.1949 22.2787 47.2093 22.2707 47.3429 22.2624C47.4694 22.2544 47.4926 22.2431 47.501 22.1849C47.5083 22.1357 47.5318 22.1168 47.5868 22.1168C47.6469 22.1168 47.6626 22.101 47.6626 22.041C47.6626 21.9804 47.6781 21.9653 47.7404 21.9653C47.8029 21.9653 47.8185 21.9501 47.8185 21.8895C47.8185 21.829 47.834 21.8137 47.8965 21.8137C47.9588 21.8137 47.9743 21.7986 47.9743 21.7381C47.9743 21.6774 47.99 21.6623 48.0523 21.6623C48.1146 21.6623 48.1303 21.6472 48.1303 21.5865C48.1303 21.5265 48.146 21.5109 48.2061 21.5109C48.265 21.5109 48.2848 21.4921 48.295 21.4274C48.3021 21.3816 48.3101 21.593 48.3127 21.8972L48.3174 22.45H48.2394H48.1614V22.8872C48.1614 23.3177 48.1603 23.3246 48.0912 23.3342C48.0314 23.3424 48.0198 23.3649 48.0115 23.4891C48.0035 23.6111 47.9898 23.6391 47.9258 23.6627C47.8624 23.6862 47.8497 23.7112 47.8497 23.8134C47.8497 23.9165 47.8372 23.9409 47.7717 23.965C47.7066 23.989 47.6937 24.0136 47.6937 24.1136C47.6937 24.2148 47.6828 24.235 47.6235 24.2432C47.5796 24.2492 47.5498 24.2772 47.5438 24.3181C47.538 24.3579 47.5045 24.3908 47.4581 24.4021C47.4089 24.4141 47.382 24.4422 47.382 24.4813C47.382 24.5184 47.3513 24.5535 47.304 24.5709C47.2611 24.5868 47.226 24.6197 47.226 24.6438C47.226 24.668 47.1945 24.6922 47.1558 24.6976C47.1115 24.7036 47.0821 24.7316 47.0759 24.7736C47.0699 24.8149 47.0406 24.8434 46.9981 24.8493C46.9549 24.8553 46.9261 24.8838 46.9199 24.9269C46.9119 24.9821 46.89 24.9951 46.8054 24.9951C46.6615 24.9951 46.6024 25.0221 46.6024 25.0876C46.6024 25.1325 46.5738 25.145 46.4543 25.1525C46.328 25.1605 46.3048 25.1718 46.2962 25.2299C46.287 25.2936 46.2711 25.2981 46.0567 25.2981C45.8004 25.2981 45.667 25.3341 45.667 25.4034C45.667 25.4437 45.5572 25.4495 44.8096 25.4495C44.0774 25.4495 43.952 25.4432 43.952 25.4052C43.952 25.3259 43.8374 25.2981 43.5094 25.2981C43.2054 25.2981 43.1858 25.2943 43.1566 25.2299C43.1298 25.1705 43.0991 25.1607 42.9154 25.1528C42.7587 25.1461 42.705 25.1329 42.705 25.1009C42.705 25.0334 42.5993 24.9951 42.4129 24.9951C42.259 24.9951 42.2404 24.9881 42.2316 24.9269C42.2232 24.8693 42.1996 24.8574 42.0803 24.8498C41.9695 24.8427 41.9325 24.8264 41.9087 24.774C41.8861 24.7238 41.8474 24.7051 41.7529 24.6984C41.6582 24.6915 41.6197 24.6727 41.5969 24.6226C41.5737 24.5708 41.5357 24.5537 41.4291 24.5462C41.1649 24.5279 41.1458 24.5437 41.1458 24.7804C41.1458 24.9772 41.1417 24.9896 41.068 25.0076C40.9935 25.0258 40.99 25.0369 40.99 25.2512C40.99 25.461 40.9853 25.4763 40.9198 25.4853C40.8536 25.4944 40.8491 25.5108 40.8407 25.7733C40.8323 26.0344 40.8276 26.0522 40.7629 26.0613C40.6998 26.0698 40.6929 26.09 40.6847 26.2885C40.6764 26.4866 40.6693 26.507 40.6067 26.5157C40.5417 26.5246 40.5374 26.5421 40.529 26.8206L40.52 27.116H40.5969C40.6529 27.116 40.6766 27.1345 40.6837 27.1842C40.6923 27.2422 40.7155 27.2538 40.8399 27.2614C40.9632 27.2693 40.9875 27.2811 40.9958 27.3372C41.004 27.3934 41.0285 27.4052 41.1518 27.4131C41.2749 27.4207 41.2994 27.4325 41.3076 27.4887C41.3164 27.5492 41.3378 27.5561 41.5415 27.5641C41.7454 27.5723 41.7664 27.579 41.7753 27.6399C41.7841 27.7008 41.8051 27.7076 42.0111 27.7157C42.2069 27.7234 42.2373 27.7321 42.2373 27.7806C42.2373 27.8612 42.2951 27.8735 42.6763 27.8735C42.9947 27.8735 43.0166 27.8773 43.0166 27.9335C43.0166 28.0262 43.0385 28.0271 44.9342 28.0182L46.7115 28.0099L46.7216 27.9417C46.7311 27.8763 46.7439 27.8735 47.0391 27.8735C47.3683 27.8735 47.5066 27.8423 47.5066 27.7681C47.5066 27.7319 47.5466 27.7219 47.6912 27.7219C47.9159 27.7219 47.9743 27.7025 47.9743 27.6279C47.9743 27.5794 47.9981 27.5705 48.1283 27.5705C48.3144 27.5705 48.442 27.5278 48.442 27.4652C48.442 27.4365 48.4708 27.4191 48.518 27.4191C48.6338 27.4191 48.7539 27.3654 48.7539 27.3136C48.7539 27.2847 48.7827 27.2674 48.8319 27.2674C48.8938 27.2674 48.9097 27.2522 48.9097 27.1934C48.9097 27.1265 48.9241 27.1184 49.0579 27.11C49.1843 27.1022 49.2074 27.0909 49.216 27.0327C49.2231 26.9838 49.2468 26.9646 49.2996 26.9646C49.4107 26.9646 49.5334 26.9109 49.5334 26.8626C49.5334 26.839 49.5684 26.811 49.6113 26.8006C49.6605 26.7886 49.6893 26.7602 49.6893 26.7237C49.6893 26.6866 49.7145 26.6623 49.7594 26.6561C49.8045 26.6499 49.8331 26.6221 49.8395 26.5783C49.8468 26.5288 49.8704 26.5101 49.9254 26.5101C49.9854 26.5101 50.0011 26.4943 50.0011 26.4343C50.0011 26.3738 50.0167 26.3585 50.079 26.3585C50.1392 26.3585 50.157 26.3428 50.157 26.2899C50.157 26.248 50.1841 26.2098 50.2271 26.1916C50.2814 26.1683 50.2995 26.1323 50.3068 26.0329C50.3154 25.9191 50.3254 25.904 50.3927 25.904C50.4526 25.904 50.4688 25.8884 50.4688 25.8304C50.4688 25.7771 50.4881 25.754 50.539 25.7471C50.5989 25.7388 50.6105 25.7164 50.6185 25.5935C50.6271 25.4635 50.6355 25.4495 50.7044 25.4495C50.7751 25.4495 50.7805 25.4386 50.7805 25.2981C50.7805 25.1567 50.7858 25.1467 50.8585 25.1467C50.9311 25.1467 50.9365 25.1363 50.9365 24.9972C50.9365 24.8654 50.9448 24.8467 51.0067 24.8382C51.0709 24.8293 51.0776 24.8104 51.0858 24.6107C51.0943 24.4124 51.1012 24.3922 51.1638 24.3835C51.2288 24.3746 51.2333 24.3572 51.2417 24.0787C51.2505 23.7872 51.2516 23.7832 51.3274 23.7832H51.4042V23.3288V22.8743H51.4821H51.5601V17.3599V11.8456H51.6388H51.7174L51.709 11.338L51.7004 10.8307L50.2427 10.8227L48.7851 10.8149V10.8908C48.7851 10.9517 48.7696 10.967 48.7071 10.967H48.6291L48.6244 11.5806C48.622 11.918 48.6139 12.1565 48.6068 12.1107C48.5967 12.0461 48.5767 12.0274 48.518 12.0274C48.4577 12.0274 48.442 12.0118 48.442 11.9516C48.442 11.8911 48.4265 11.876 48.3642 11.876C48.3017 11.876 48.2862 11.8607 48.2862 11.8002C48.2862 11.7396 48.2706 11.7244 48.2081 11.7244C48.1459 11.7244 48.1303 11.7093 48.1303 11.6487C48.1303 11.588 48.1146 11.5729 48.0523 11.5729C47.99 11.5729 47.9743 11.5578 47.9743 11.4971C47.9743 11.4366 47.9588 11.4215 47.8965 11.4215C47.834 11.4215 47.8185 11.4062 47.8185 11.3457C47.8185 11.275 47.808 11.2699 47.6626 11.2699C47.5171 11.2699 47.5066 11.265 47.5066 11.1943C47.5066 11.1343 47.4909 11.1184 47.4308 11.1184C47.376 11.1184 47.3522 11.0995 47.3451 11.0503C47.336 10.9877 47.3165 10.9814 47.109 10.9732C46.8924 10.9646 46.883 10.9612 46.883 10.8899C46.883 10.8174 46.8767 10.8154 46.6492 10.8154C46.4206 10.8154 46.4153 10.8138 46.4153 10.7398V10.664H45.1265C44.4177 10.664 43.8284 10.6731 43.817 10.6841ZM15.1804 15.0346L15.1882 19.2536L15.2577 19.2632C15.325 19.2725 15.3272 19.2843 15.3355 19.7024C15.3441 20.1222 15.3458 20.1325 15.4144 20.142C15.4799 20.1509 15.4846 20.1663 15.4846 20.3767C15.4846 20.5955 15.4866 20.6019 15.5611 20.6019C15.6346 20.6019 15.638 20.6108 15.6468 20.8215C15.6552 21.0215 15.6621 21.042 15.7246 21.0506C15.7824 21.0586 15.7946 21.0824 15.8024 21.2022C15.8105 21.3231 15.8224 21.3456 15.8821 21.3538C15.9328 21.3609 15.9523 21.3838 15.9523 21.4372C15.9523 21.4956 15.9684 21.5109 16.0301 21.5109C16.1029 21.5109 16.1081 21.5209 16.1081 21.6623C16.1081 21.8037 16.1134 21.8137 16.1861 21.8137C16.2484 21.8137 16.264 21.829 16.264 21.8895C16.264 21.9501 16.2797 21.9653 16.342 21.9653C16.4043 21.9653 16.42 21.9804 16.42 22.041C16.42 22.1017 16.4355 22.1168 16.4978 22.1168C16.5603 22.1168 16.5758 22.1319 16.5758 22.1926C16.5758 22.2531 16.5914 22.2682 16.6538 22.2682C16.7161 22.2682 16.7317 22.2835 16.7317 22.344C16.7317 22.4045 16.7474 22.4198 16.8097 22.4198C16.872 22.4198 16.8877 22.4349 16.8877 22.4954C16.8877 22.5662 16.898 22.5712 17.0435 22.5712C17.1891 22.5712 17.1994 22.5763 17.1994 22.647C17.1994 22.7076 17.2151 22.7227 17.2774 22.7227C17.3397 22.7227 17.3554 22.7379 17.3554 22.7985C17.3554 22.869 17.3659 22.8743 17.509 22.8743C17.6448 22.8743 17.6639 22.8823 17.6727 22.9425C17.6819 23.0048 17.7015 23.0114 17.9067 23.0194C18.1108 23.0275 18.1318 23.0343 18.1406 23.0952C18.1503 23.1608 18.1604 23.1622 18.6863 23.1704C19.2135 23.1784 19.2221 23.1797 19.2318 23.246C19.2412 23.3095 19.259 23.314 19.5302 23.3222L19.8185 23.3309V23.254V23.1771H20.426H21.0334L21.0527 23.1028C21.0703 23.0343 21.0884 23.0277 21.2792 23.0195C21.4585 23.0117 21.4908 23.0015 21.5168 22.9437C21.5406 22.8914 21.5776 22.875 21.6884 22.8681C21.8068 22.8605 21.8313 22.8483 21.8394 22.7925C21.8476 22.7363 21.8721 22.7245 21.9954 22.7167C22.1198 22.709 22.143 22.6974 22.1514 22.6394C22.1587 22.5901 22.1823 22.5712 22.2373 22.5712C22.2968 22.5712 22.3131 22.5554 22.3131 22.4973C22.3131 22.4318 22.3284 22.4222 22.4455 22.414C22.5478 22.4067 22.5851 22.3891 22.6088 22.3364C22.6277 22.2946 22.6668 22.2682 22.7102 22.2682C22.7647 22.2682 22.7808 22.2509 22.7808 22.1926C22.7808 22.1319 22.7963 22.1168 22.8586 22.1168C22.9211 22.1168 22.9366 22.1017 22.9366 22.041C22.9366 21.9804 22.9521 21.9653 23.0146 21.9653C23.0769 21.9653 23.0924 21.9501 23.0924 21.8895C23.0924 21.829 23.1082 21.8137 23.1705 21.8137C23.2305 21.8137 23.2485 21.7981 23.2487 21.7456C23.2488 21.7028 23.2775 21.6645 23.3257 21.6428L23.4026 21.6081L23.4112 22.0064C23.4196 22.3915 23.4223 22.4049 23.4889 22.4142C23.5542 22.4231 23.5585 22.4404 23.5669 22.717L23.5759 23.0106H25.0413H26.5067L26.5145 16.991C26.5198 13.1098 26.5115 10.9436 26.4919 10.893L26.4612 10.8149L24.7848 10.8229L23.1082 10.8307L23.1001 14.5917C23.0926 18.2181 23.0902 18.3533 23.0348 18.3673C22.9658 18.385 22.9366 18.5051 22.9366 18.7725C22.9366 18.942 22.9293 18.9658 22.8775 18.9658C22.8085 18.9658 22.7808 19.0223 22.7808 19.163C22.7808 19.2452 22.7673 19.2663 22.7106 19.2741C22.6507 19.2825 22.639 19.305 22.6309 19.4277C22.6223 19.5577 22.6139 19.5717 22.5452 19.5717C22.4846 19.5717 22.4689 19.5873 22.4689 19.6475C22.4689 19.708 22.4534 19.7231 22.3909 19.7231C22.3286 19.7231 22.3131 19.7384 22.3131 19.7989C22.3131 19.8595 22.2973 19.8747 22.235 19.8747C22.1727 19.8747 22.157 19.8898 22.157 19.9504C22.157 20.0111 22.1415 20.0262 22.0792 20.0262C22.0173 20.0262 22.0012 20.0414 22.0012 20.1003C22.0012 20.1671 21.9868 20.1752 21.853 20.1836C21.7279 20.1914 21.7035 20.2031 21.6953 20.2594C21.6871 20.3156 21.6626 20.3274 21.5393 20.3352C21.4149 20.3429 21.3917 20.3545 21.3833 20.4125L21.3732 20.4807H20.6738H19.9745V20.4048C19.9745 20.3341 19.9641 20.3292 19.8185 20.3292C19.6732 20.3292 19.6627 20.3241 19.6627 20.2534C19.6627 20.1934 19.647 20.1776 19.5869 20.1776C19.5321 20.1776 19.5083 20.1589 19.5012 20.1094C19.4949 20.0664 19.4661 20.0378 19.423 20.0318C19.3804 20.026 19.351 19.9975 19.345 19.9562C19.3388 19.9142 19.3095 19.8862 19.2651 19.8802C19.2144 19.8731 19.195 19.8502 19.195 19.7968C19.195 19.7389 19.1787 19.7231 19.1186 19.7231C19.05 19.7231 19.0416 19.7091 19.033 19.5793C19.0249 19.4564 19.0131 19.4339 18.9533 19.4257C18.8913 19.4172 18.8831 19.3985 18.8831 19.2667C18.8831 19.1281 18.8777 19.1172 18.8064 19.1172C18.7306 19.1172 18.7293 19.1132 18.7205 18.8218C18.7121 18.5415 18.708 18.5259 18.6416 18.5168L18.5714 18.507V14.6612V10.8154H16.872H15.1725L15.1804 15.0346ZM8.97339 13.2772C8.98293 13.3416 8.99958 13.3459 9.27179 13.3541C9.55503 13.3626 9.56027 13.3641 9.56027 13.4374C9.56027 13.5068 9.5713 13.5121 9.71611 13.5121C9.86165 13.5121 9.87213 13.517 9.87213 13.5877C9.87213 13.6462 9.88822 13.6635 9.94266 13.6635C9.98588 13.6635 10.0252 13.6899 10.0439 13.7317C10.0678 13.7844 10.1049 13.802 10.2072 13.8091C10.3243 13.8175 10.3398 13.8271 10.3398 13.8926C10.3398 13.9507 10.3559 13.9666 10.416 13.9666C10.4833 13.9666 10.4932 13.9815 10.5017 14.0953C10.509 14.194 10.5273 14.2309 10.5802 14.2534C10.618 14.2696 10.6532 14.3105 10.6581 14.3443C10.6635 14.381 10.6947 14.4096 10.7357 14.4152C10.7918 14.423 10.8059 14.4476 10.8135 14.5516C10.8208 14.6483 10.8395 14.6855 10.8917 14.7077C10.9434 14.7299 10.9628 14.7673 10.9697 14.8593C10.9767 14.9511 10.9959 14.9888 11.0478 15.0108C11.1016 15.0338 11.1185 15.0698 11.1256 15.1775C11.1334 15.2929 11.146 15.3163 11.204 15.3243C11.2691 15.3333 11.2736 15.3505 11.2818 15.6272C11.2904 15.9055 11.2943 15.9212 11.3609 15.9304L11.4311 15.9401V16.9226V17.9052H11.3531H11.2752V18.2083V18.5113H11.1972C11.125 18.5113 11.1192 18.5219 11.1192 18.6555C11.1192 18.7762 11.1078 18.8047 11.0491 18.8298C10.9959 18.8525 10.9767 18.8891 10.9697 18.982C10.9628 19.0738 10.9434 19.1114 10.8917 19.1334C10.8392 19.1558 10.8208 19.1928 10.8135 19.2914C10.8049 19.4052 10.795 19.4203 10.7277 19.4203C10.6684 19.4203 10.6515 19.4361 10.6515 19.4924C10.6515 19.5401 10.6294 19.5702 10.587 19.5812C10.5512 19.5901 10.5149 19.6246 10.5062 19.6575C10.4972 19.6906 10.4622 19.7246 10.4281 19.7333C10.3941 19.7419 10.3591 19.776 10.3501 19.8091C10.3413 19.842 10.3062 19.8762 10.2723 19.8847C10.2382 19.8935 10.2031 19.928 10.1939 19.9616C10.1849 19.9953 10.1473 20.0269 10.1105 20.032C10.0686 20.0378 10.0398 20.0669 10.0336 20.1094C10.0265 20.1589 10.0027 20.1776 9.9479 20.1776C9.88785 20.1776 9.87213 20.1934 9.87213 20.2534C9.87213 20.3241 9.86165 20.3292 9.71611 20.3292C9.57074 20.3292 9.56027 20.3341 9.56027 20.4048C9.56027 20.4801 9.55821 20.4807 9.27889 20.4807C9.00744 20.4807 8.9964 20.4834 8.96778 20.5565L8.93822 20.6321H8.46977H8.00131V20.5565C8.00131 20.4823 7.99608 20.4807 7.76746 20.4807C7.53866 20.4807 7.53361 20.479 7.53361 20.4048C7.53361 20.3341 7.52313 20.3292 7.37758 20.3292C7.23222 20.3292 7.22175 20.3241 7.22175 20.2534C7.22175 20.1949 7.20566 20.1776 7.15122 20.1776C7.108 20.1776 7.06871 20.1512 7.04982 20.1094C7.02606 20.0569 6.98883 20.0393 6.8865 20.032C6.76938 20.0238 6.75404 20.0142 6.75404 19.9487C6.75404 19.89 6.73795 19.8747 6.67603 19.8747C6.61373 19.8747 6.5982 19.8595 6.5982 19.7989C6.5982 19.7388 6.58249 19.7231 6.52187 19.7231C6.45303 19.7231 6.4448 19.7091 6.43619 19.5793C6.42796 19.4564 6.41636 19.4339 6.35649 19.4257C6.30579 19.4186 6.28634 19.3957 6.28634 19.3423C6.28634 19.2839 6.27006 19.2687 6.20832 19.2687C6.13555 19.2687 6.1305 19.2587 6.1305 19.1172C6.1305 18.9765 6.12507 18.9658 6.05361 18.9658C5.97821 18.9658 5.97672 18.9607 5.96792 18.6855C5.95969 18.4281 5.95315 18.4028 5.88879 18.3753L5.81863 18.3453V16.9912V15.6372L5.88879 15.6274C5.95539 15.6183 5.95932 15.6027 5.96792 15.3223C5.97672 15.0309 5.97784 15.0269 6.05361 15.0269C6.12507 15.0269 6.1305 15.0162 6.1305 14.8755C6.1305 14.7341 6.13555 14.7239 6.20832 14.7239C6.2811 14.7239 6.28634 14.7139 6.28634 14.5725C6.28634 14.431 6.29158 14.421 6.36435 14.421C6.42665 14.421 6.44218 14.4058 6.44218 14.3452C6.44218 14.2847 6.45789 14.2694 6.52019 14.2694C6.58193 14.2694 6.5982 14.2541 6.5982 14.1958C6.5982 14.1425 6.61747 14.1194 6.66836 14.1125C6.7127 14.1064 6.74207 14.0785 6.74824 14.0365C6.75423 13.9953 6.7836 13.9667 6.82607 13.9607C6.86928 13.9547 6.89809 13.9264 6.90427 13.8831C6.91156 13.8338 6.93514 13.8149 6.99014 13.8149C7.04963 13.8149 7.06591 13.7991 7.06591 13.741C7.06591 13.6755 7.08125 13.6659 7.19836 13.6577C7.29976 13.6506 7.33792 13.6326 7.36093 13.5815C7.38376 13.5313 7.4223 13.5126 7.51696 13.5059C7.61162 13.4992 7.65016 13.4803 7.67299 13.4299C7.69899 13.3723 7.73117 13.3617 7.90684 13.3541C8.08344 13.3465 8.1145 13.3363 8.14125 13.2772C8.17081 13.2116 8.18727 13.209 8.5678 13.209C8.9545 13.209 8.96366 13.2107 8.97339 13.2772ZM33.6938 13.2848C33.6938 13.3588 33.699 13.3605 33.9276 13.3605C34.1563 13.3605 34.1615 13.3623 34.1615 13.4363C34.1615 13.5057 34.1731 13.5121 34.2996 13.5121C34.4191 13.5121 34.4391 13.5212 34.4477 13.5803C34.4548 13.629 34.482 13.6511 34.5435 13.6579C34.6038 13.6646 34.6292 13.6848 34.6292 13.7255C34.6292 13.7622 34.658 13.7906 34.7072 13.8026C34.7557 13.8144 34.785 13.8431 34.785 13.8784C34.785 13.9135 34.8146 13.9422 34.8631 13.954C34.9106 13.9656 34.9411 13.9947 34.9411 14.0284C34.9411 14.0587 34.9676 14.0918 35.0002 14.1018C35.0329 14.112 35.0683 14.1538 35.0788 14.1949C35.0909 14.2416 35.1203 14.2694 35.1577 14.2694C35.1957 14.2694 35.2209 14.2941 35.2273 14.3376C35.2337 14.3809 35.2623 14.4092 35.3057 14.4152C35.3635 14.4232 35.3757 14.447 35.3837 14.5668C35.3918 14.6877 35.4035 14.7103 35.4632 14.7184C35.5268 14.7273 35.5334 14.7446 35.5334 14.9053C35.5334 15.1217 35.5536 15.1784 35.6303 15.1784C35.6875 15.1784 35.6894 15.23 35.6894 16.8448C35.6894 18.4597 35.6875 18.5113 35.6303 18.5113C35.5534 18.5113 35.5334 18.568 35.5334 18.7864C35.5334 18.9422 35.5257 18.9658 35.4744 18.9658C35.4054 18.9658 35.3775 19.0223 35.3775 19.163C35.3775 19.2452 35.3642 19.2663 35.3074 19.2741C35.2475 19.2825 35.2359 19.305 35.2277 19.4277C35.2191 19.5577 35.2108 19.5717 35.142 19.5717C35.0814 19.5717 35.0657 19.5873 35.0657 19.6475C35.0657 19.708 35.0501 19.7231 34.9878 19.7231C34.9254 19.7231 34.9098 19.7384 34.9098 19.7989C34.9098 19.8595 34.8943 19.8747 34.8318 19.8747C34.7695 19.8747 34.754 19.8898 34.754 19.9504C34.754 20.0187 34.7415 20.0262 34.6285 20.0262C34.5233 20.0262 34.4981 20.0384 34.4734 20.102C34.4552 20.1483 34.4191 20.1776 34.3806 20.1776C34.334 20.1776 34.3173 20.1976 34.3173 20.2534C34.3173 20.3241 34.307 20.3292 34.1615 20.3292C34.0165 20.3292 34.0057 20.3343 34.0057 20.4039V20.4788L33.6236 20.4874C33.2543 20.4956 33.2414 20.4981 33.2317 20.5639C33.224 20.6164 33.2014 20.6321 33.1325 20.6321C33.0637 20.6321 33.0411 20.6164 33.0334 20.5639C33.0237 20.4981 33.0108 20.4956 32.6415 20.4874L32.2594 20.4788V20.4039C32.2594 20.3345 32.2484 20.3292 32.1058 20.3292C31.97 20.3292 31.9509 20.3212 31.9421 20.261C31.9335 20.2029 31.9103 20.1914 31.7841 20.1836C31.6503 20.1752 31.6359 20.1671 31.6359 20.1003C31.6359 20.0414 31.6198 20.0262 31.5579 20.0262C31.4956 20.0262 31.4801 20.0111 31.4801 19.9504C31.4801 19.8904 31.4643 19.8747 31.4043 19.8747C31.3493 19.8747 31.3257 19.8558 31.3184 19.8066C31.3121 19.7628 31.2834 19.7349 31.2383 19.7286C31.1876 19.7217 31.1682 19.6986 31.1682 19.6453C31.1682 19.587 31.1519 19.5717 31.0902 19.5717C31.0279 19.5717 31.0124 19.5566 31.0124 19.4959C31.0124 19.4357 30.9966 19.4203 30.936 19.4203C30.8672 19.4203 30.8589 19.4063 30.8503 19.2763C30.8421 19.1534 30.8305 19.131 30.7706 19.1227C30.7087 19.1141 30.7005 19.0954 30.7005 18.9636C30.7005 18.8245 30.6951 18.8142 30.6225 18.8142C30.5497 18.8142 30.5447 18.8042 30.5447 18.6627C30.5447 18.5213 30.5394 18.5113 30.4666 18.5113H30.3886V18.1483C30.3886 17.7863 30.3884 17.7852 30.3108 17.7662L30.2328 17.7473V16.9174V16.0873H30.3108C30.3886 16.0873 30.3886 16.0871 30.3886 15.7877C30.3886 15.4932 30.3901 15.4876 30.4666 15.4691C30.5405 15.4511 30.5447 15.4389 30.5447 15.2384C30.5447 15.0331 30.5469 15.0269 30.6225 15.0269C30.6951 15.0269 30.7005 15.0168 30.7005 14.8775C30.7005 14.7457 30.7087 14.727 30.7706 14.7184C30.8305 14.7103 30.8421 14.6877 30.8503 14.5648C30.8589 14.435 30.8672 14.421 30.936 14.421C30.9966 14.421 31.0124 14.4054 31.0124 14.3452C31.0124 14.2847 31.0279 14.2694 31.0902 14.2694C31.1517 14.2694 31.1682 14.2541 31.1682 14.1971C31.1682 14.1451 31.1903 14.1193 31.2462 14.1056C31.2947 14.0938 31.324 14.0651 31.324 14.0298C31.324 13.9946 31.3536 13.9658 31.402 13.954C31.4512 13.942 31.4801 13.9137 31.4801 13.8771C31.4801 13.8402 31.5053 13.8157 31.5502 13.8095C31.5953 13.8033 31.6239 13.7755 31.6303 13.7317C31.6374 13.6824 31.6612 13.6635 31.716 13.6635C31.776 13.6635 31.7917 13.6477 31.7917 13.5877C31.7917 13.517 31.8022 13.5121 31.9478 13.5121C32.0931 13.5121 32.1036 13.507 32.1036 13.4363C32.1036 13.3623 32.1088 13.3605 32.3375 13.3605C32.5661 13.3605 32.5713 13.3588 32.5713 13.2848V13.209H33.1325H33.6938V13.2848ZM46.4466 13.2848C46.4466 13.3556 46.4569 13.3605 46.6024 13.3605C46.748 13.3605 46.7583 13.3656 46.7583 13.4363C46.7583 13.507 46.7687 13.5121 46.9143 13.5121C47.0597 13.5121 47.0701 13.517 47.0701 13.5877C47.0701 13.6484 47.0857 13.6635 47.1481 13.6635C47.2104 13.6635 47.226 13.6786 47.226 13.7393C47.226 13.7999 47.2417 13.8149 47.304 13.8149C47.3663 13.8149 47.382 13.8302 47.382 13.8907C47.382 13.9513 47.3975 13.9666 47.4598 13.9666C47.5223 13.9666 47.5378 13.9816 47.5378 14.0422C47.5378 14.1029 47.5534 14.118 47.6159 14.118C47.6781 14.118 47.6937 14.1331 47.6937 14.1938C47.6937 14.2543 47.7094 14.2694 47.7717 14.2694C47.8445 14.2694 47.8497 14.2796 47.8497 14.421C47.8497 14.5616 47.8551 14.5725 47.9262 14.5725C47.9997 14.5725 48.0031 14.5816 48.0119 14.7921C48.0203 14.9937 48.0269 15.0126 48.0912 15.0215L48.1614 15.0311V16.847V18.6627H48.0835C48.011 18.6627 48.0055 18.6729 48.0055 18.8122C48.0055 18.944 47.9973 18.9627 47.9354 18.9712C47.8755 18.9794 47.8639 19.002 47.8557 19.1249C47.8471 19.2547 47.8388 19.2687 47.77 19.2687C47.7094 19.2687 47.6937 19.2843 47.6937 19.3445C47.6937 19.405 47.6781 19.4203 47.6159 19.4203C47.5541 19.4203 47.5378 19.4355 47.5378 19.4939C47.5378 19.5472 47.5184 19.5702 47.4677 19.5772C47.4233 19.5833 47.394 19.6111 47.3878 19.6531C47.3818 19.6944 47.3524 19.7229 47.3098 19.7289C47.2668 19.7349 47.2379 19.7633 47.2316 19.8066C47.2245 19.8558 47.2007 19.8747 47.1459 19.8747C47.0864 19.8747 47.0701 19.8906 47.0701 19.9487C47.0701 20.0156 47.0557 20.0238 46.922 20.0322C46.7957 20.04 46.7725 20.0513 46.7639 20.1094C46.7551 20.1696 46.736 20.1776 46.6002 20.1776C46.4571 20.1776 46.4466 20.1829 46.4466 20.2534V20.3292H45.6515H44.8564V20.2534C44.8564 20.184 44.8448 20.1776 44.7181 20.1776C44.5986 20.1776 44.5788 20.1685 44.5702 20.1094C44.5616 20.0513 44.5384 20.04 44.4121 20.0322C44.2783 20.0238 44.2639 20.0156 44.2639 19.9487C44.2639 19.89 44.2478 19.8747 44.1859 19.8747C44.1236 19.8747 44.1081 19.8595 44.1081 19.7989C44.1081 19.7384 44.0924 19.7231 44.0301 19.7231C43.9678 19.7231 43.952 19.708 43.952 19.6475C43.952 19.5868 43.9365 19.5717 43.8742 19.5717C43.8117 19.5717 43.7962 19.5566 43.7962 19.4959C43.7962 19.4363 43.7803 19.4203 43.7217 19.4203C43.6576 19.4203 43.6445 19.4017 43.6265 19.2854C43.6121 19.1912 43.5882 19.145 43.547 19.1325C43.5148 19.1225 43.484 19.0843 43.4785 19.0476C43.4724 19.0052 43.4432 18.9774 43.3987 18.9712C43.3399 18.9631 43.3285 18.9427 43.3285 18.8462C43.3285 18.6597 43.2943 18.5448 43.2329 18.5257C43.1904 18.5126 43.1734 18.472 43.1665 18.3659C43.1584 18.2446 43.1467 18.2219 43.0868 18.2137C43.0181 18.2043 43.0166 18.1959 43.0166 17.7996C43.0166 17.3531 43.0063 17.2993 42.9199 17.2993C42.8189 17.2993 42.8299 16.3989 42.9309 16.3849C42.9987 16.3755 43.0015 16.3629 43.0099 16.0059C43.0176 15.6772 43.0251 15.6345 43.0763 15.6187C43.145 15.5974 43.1727 15.4838 43.1727 15.2222C43.1727 15.0471 43.1785 15.0304 43.2428 15.0215C43.3025 15.0133 43.3143 14.9906 43.3223 14.8697C43.3304 14.7501 43.3425 14.7263 43.4003 14.7183C43.4583 14.7103 43.4703 14.6866 43.4783 14.5648C43.487 14.435 43.4952 14.421 43.564 14.421C43.6246 14.421 43.6404 14.4054 43.6404 14.3452C43.6404 14.29 43.657 14.2694 43.7021 14.2694C43.7418 14.2694 43.7708 14.2427 43.7831 14.1949C43.7938 14.1538 43.8291 14.112 43.8617 14.1018C43.8942 14.0918 43.921 14.0587 43.921 14.0284C43.921 13.9947 43.9513 13.9656 43.9988 13.954C44.048 13.942 44.0768 13.9137 44.0768 13.8771C44.0768 13.8362 44.1023 13.8162 44.1625 13.8095C44.2231 13.8026 44.2512 13.7804 44.2581 13.7335C44.2641 13.6922 44.2935 13.6637 44.3359 13.6579C44.3791 13.6519 44.408 13.6233 44.4141 13.5803C44.4227 13.5212 44.4428 13.5121 44.5617 13.5121C44.6818 13.5121 44.7017 13.5026 44.7185 13.4375C44.7361 13.3692 44.7543 13.3625 44.9451 13.3543C45.1333 13.3463 45.1535 13.339 45.1625 13.2772C45.1726 13.209 45.1726 13.209 45.8096 13.209H46.4466V13.2848ZM72.3183 19.6826C72.2711 19.7068 72.2337 19.7428 72.235 19.7628C72.2369 19.7891 72.2418 19.7886 72.2532 19.7611C72.262 19.7402 72.2872 19.7231 72.3093 19.7231C72.3316 19.7231 72.3671 19.7028 72.3884 19.6777C72.4339 19.6246 72.4313 19.6248 72.3183 19.6826ZM69.7175 21.382C69.736 21.4116 69.6571 21.4825 69.6324 21.4585C69.6219 21.4483 69.6135 21.456 69.6135 21.4754C69.6135 21.5239 69.6709 21.5198 69.7248 21.4676C69.7772 21.4167 69.7833 21.3592 69.7364 21.3592C69.7182 21.3592 69.7096 21.3696 69.7175 21.382ZM69.0977 21.8421C69.1076 21.8575 69.0842 21.8915 69.0459 21.9177C69.0073 21.9439 68.9942 21.9653 69.0163 21.9653C69.0651 21.9653 69.1458 21.8912 69.1458 21.8463C69.1458 21.8284 69.131 21.8137 69.1126 21.8137C69.0945 21.8137 69.0878 21.8264 69.0977 21.8421ZM68.0064 22.5994C68.0162 22.6151 67.993 22.649 67.9544 22.6752C67.9161 22.7014 67.9028 22.7227 67.9251 22.7227C67.9739 22.7227 68.0545 22.6487 68.0545 22.6038C68.0545 22.5858 68.0395 22.5712 68.0214 22.5712C68.0033 22.5712 67.9965 22.584 68.0064 22.5994ZM67.2764 22.8343C67.2701 22.9959 67.4343 23.0873 67.5423 22.9825C67.5947 22.9316 67.6007 22.8743 67.5537 22.8743C67.5355 22.8743 67.5284 22.8863 67.5378 22.901C67.563 22.9406 67.4847 22.9934 67.4154 22.9834C67.3823 22.9786 67.3378 22.9352 67.3165 22.8866C67.2951 22.8381 67.2772 22.8147 67.2764 22.8343Z" fill="#122120"/>
<path fill-rule="evenodd" clip-rule="evenodd" d="M72.2324 2.31041C72.2324 2.35985 72.3078 2.36294 72.3484 2.31513C72.3619 2.2995 72.36 2.29659 72.3445 2.30895C72.3288 2.32131 72.2973 2.31622 72.2743 2.29768C72.2423 2.27205 72.2324 2.27496 72.2324 2.31041ZM69.7511 2.58473C69.7253 2.63872 69.7268 2.65508 69.7575 2.65508C69.7796 2.65508 69.791 2.64472 69.783 2.63199C69.7747 2.61927 69.7824 2.60036 69.7998 2.58982C69.8366 2.56782 69.8426 2.51365 69.8082 2.51401C69.7953 2.51419 69.7697 2.54601 69.7511 2.58473ZM66.387 3.00739C66.3738 3.03739 66.3715 3.07029 66.3822 3.08065C66.414 3.11138 66.4394 3.06811 66.4248 3.00848C66.4119 2.95558 66.4102 2.95558 66.387 3.00739ZM60.8027 3.76891C60.7695 3.79236 60.7495 3.81854 60.7581 3.82672C60.7667 3.83508 60.8008 3.82272 60.8337 3.79927C60.8668 3.77582 60.8868 3.74982 60.8782 3.74146C60.8696 3.7331 60.8356 3.74546 60.8027 3.76891ZM58.5755 4.05905C58.5755 4.07559 58.5543 4.08923 58.5287 4.08923C58.5029 4.08923 58.483 4.11322 58.4843 4.14231C58.4857 4.1714 58.4937 4.17903 58.5019 4.15922C58.5103 4.13922 58.5373 4.13049 58.5618 4.13976C58.5921 4.15085 58.6067 4.13558 58.6067 4.0925C58.6067 4.05741 58.5996 4.02869 58.591 4.02869C58.5824 4.02869 58.5755 4.04232 58.5755 4.05905ZM57.475 4.24084C57.4661 4.27411 57.4715 4.30138 57.487 4.30138C57.5025 4.30138 57.5153 4.29574 57.5153 4.28865C57.5153 4.28174 57.5239 4.25447 57.5342 4.22811C57.5446 4.20175 57.5392 4.18012 57.5224 4.18012C57.5053 4.18012 57.484 4.20739 57.475 4.24084ZM72.2792 6.5434C72.2375 6.56085 72.2322 6.5703 72.2637 6.57176C72.2915 6.57321 72.2732 6.59793 72.2184 6.6332C72.1364 6.68556 72.1338 6.69156 72.195 6.68701C72.2326 6.68429 72.2637 6.67047 72.2637 6.65647C72.2637 6.64229 72.2777 6.6392 72.2947 6.64956C72.3119 6.65974 72.3259 6.64702 72.3259 6.62102C72.3259 6.59503 72.34 6.57376 72.3572 6.57376C72.3742 6.57376 72.3882 6.56012 72.3882 6.5434C72.3882 6.50795 72.3643 6.50795 72.2792 6.5434ZM59.6497 7.78575C59.6497 8.3773 59.6538 8.61926 59.6588 8.32349C59.6641 8.02772 59.6641 7.54361 59.6588 7.24784C59.6538 6.95206 59.6497 7.19403 59.6497 7.78575ZM72.2449 8.95412C72.2449 9.01357 72.2605 9.02756 72.3245 9.02593L72.404 9.02411L72.3318 8.99593C72.2921 8.98048 72.2678 8.95503 72.2777 8.9394C72.2876 8.92376 72.2844 8.90413 72.2704 8.89558C72.2564 8.88722 72.2449 8.91358 72.2449 8.95412ZM67.2901 15.9511C67.2901 19.7339 67.2936 21.2859 67.2981 19.4C67.3026 17.5141 67.3026 14.4191 67.2981 12.5223C67.2936 10.6253 67.2901 12.1684 67.2901 15.9511ZM72.3259 19.6341C72.3259 19.6685 72.34 19.6881 72.3572 19.6778C72.3742 19.6676 72.3882 19.6394 72.3882 19.6154C72.3882 19.5914 72.3742 19.5718 72.3572 19.5718C72.34 19.5718 72.3259 19.5998 72.3259 19.6341ZM68.7402 22.075C68.7402 22.1154 68.7488 22.1174 68.7869 22.0865C68.8127 22.0658 68.8337 22.0438 68.8337 22.0374C68.8337 22.031 68.8127 22.0259 68.7869 22.0259C68.7613 22.0259 68.7402 22.0481 68.7402 22.075ZM64.3692 22.9414C64.3232 22.9878 64.296 23.0258 64.3091 23.0258C64.3387 23.0258 64.4841 22.8778 64.4661 22.8658C64.4588 22.8611 64.4152 22.8953 64.3692 22.9414Z" fill="#122120"/>
<path fill-rule="evenodd" clip-rule="evenodd" d="M60.7995 8.86871C61.4311 8.87326 62.4553 8.87326 63.0757 8.86871C63.696 8.86417 63.1793 8.86035 61.9276 8.86035C60.6756 8.86035 60.1681 8.86417 60.7995 8.86871ZM68.7194 8.86871C69.3508 8.87326 70.375 8.87326 70.9954 8.86871C71.6158 8.86417 71.0992 8.86035 69.8473 8.86035C68.5953 8.86035 68.0878 8.86417 68.7194 8.86871ZM53.6275 23.018C53.8299 23.0233 54.1526 23.0233 54.3446 23.018C54.5365 23.0125 54.371 23.0084 53.9766 23.0084C53.582 23.0084 53.4251 23.0127 53.6275 23.018ZM59.61 23.018C60.4448 23.0225 61.8198 23.0225 62.6656 23.018C63.5116 23.0136 62.8286 23.0098 61.148 23.0098C59.4674 23.0098 58.7752 23.0136 59.61 23.018Z" fill="#122120"/>
<path fill-rule="evenodd" clip-rule="evenodd" d="M72.4027 4.45267C72.4027 5.54414 72.4067 5.9908 72.4113 5.44507C72.4162 4.89933 72.4162 4.0062 72.4113 3.46046C72.4067 2.91473 72.4027 3.3612 72.4027 4.45267ZM62.7587 6.7176C64.4678 6.72178 67.2741 6.72178 68.9947 6.7176C70.7153 6.71324 69.3168 6.7096 65.8869 6.7096C62.4571 6.7096 61.0493 6.71324 62.7587 6.7176ZM72.4033 14.2846C72.4033 17.1175 72.4069 18.2809 72.4113 16.8699C72.4158 15.459 72.4158 13.1412 72.4113 11.7192C72.4069 10.2972 72.4033 11.4516 72.4033 14.2846Z" fill="#122120"/>
</g>
<defs>
<clipPath id="clip0">
<rect width="70" height="28" fill="white"/>
</clipPath>
</defs>
</svg>
