<svg width="70" height="28" viewBox="0 0 70 28" fill="none" xmlns="http://www.w3.org/2000/svg">
<g clip-path="url(#clip0)">
<path fill-rule="evenodd" clip-rule="evenodd" d="M71.9806 2.24114C71.9788 2.2495 71.9797 2.28004 71.9827 2.30931C71.9877 2.35749 71.9466 2.36258 71.5341 2.36603C71.2845 2.36821 71.066 2.3733 71.049 2.37748C71.0317 2.38167 70.984 2.38676 70.9427 2.38876C70.8838 2.39185 70.8712 2.40548 70.884 2.45311C70.8984 2.50674 70.1396 2.556 69.9147 2.51601C69.873 2.50874 69.7697 2.60927 69.7886 2.63908C69.7979 2.65344 69.6045 2.66689 69.3592 2.66889C68.6672 2.67471 68.6816 2.67308 68.6229 2.74706C68.5727 2.81015 68.5443 2.81396 68.0712 2.82014C67.5636 2.82687 67.483 2.83505 67.5097 2.87704C67.55 2.94031 67.4102 2.9643 66.9515 2.97248C66.507 2.98048 66.4544 2.98703 66.4415 3.03538C66.4335 3.0652 66.397 3.09083 66.3605 3.09247C66.3238 3.0941 66.1192 3.10046 65.9057 3.10665C65.6922 3.11283 65.4997 3.12446 65.478 3.13264C65.4561 3.14082 65.4301 3.13428 65.4199 3.1181C65.3987 3.08501 65.3117 3.15755 65.3117 3.20845C65.3117 3.24535 65.3297 3.24353 64.8285 3.25735C64.3578 3.27026 64.1892 3.29334 64.1892 3.34534C64.1892 3.40333 64.1294 3.41024 63.6358 3.40878C63.3915 3.40805 63.1915 3.41623 63.1915 3.42678C63.1913 3.46295 63.0389 3.47441 63.0014 3.44096C62.9738 3.41623 62.9698 3.41733 62.9861 3.4455C62.9988 3.46732 62.9908 3.4835 62.9672 3.48386C62.9343 3.48422 62.9343 3.48913 62.968 3.50986C63.0325 3.54949 62.9431 3.55912 62.5055 3.55912C62.2911 3.55912 62.1087 3.56785 62.1001 3.57857C62.0915 3.58948 62.0496 3.60312 62.0065 3.60893C61.9637 3.61493 61.9137 3.63802 61.8956 3.66056C61.8728 3.68874 61.7581 3.7051 61.5214 3.71346C61.3338 3.72001 61.1422 3.73037 61.0955 3.73655C61.0487 3.74255 61.018 3.73582 61.0272 3.72146C61.0577 3.67329 61.0006 3.69492 60.9553 3.74837C60.9308 3.77763 60.9196 3.78436 60.9304 3.76364C60.9413 3.74273 60.9353 3.72564 60.9172 3.72564C60.899 3.72564 60.884 3.736 60.884 3.74873C60.884 3.83617 60.6637 3.86835 59.9954 3.87835C59.8233 3.88089 59.6957 3.90761 59.7144 3.93706C59.7428 3.98197 59.625 4.00615 59.3251 4.01742C58.837 4.03541 58.768 4.03469 58.7291 4.01142C58.7038 3.99633 58.7001 4.00196 58.7175 4.02923C58.7362 4.05868 58.7285 4.06395 58.6881 4.04887C58.6492 4.03432 58.6286 4.04596 58.617 4.08922C58.608 4.12249 58.5848 4.15085 58.5654 4.15212C58.5459 4.1534 58.3826 4.16012 58.2026 4.16703C58.0224 4.17394 57.8127 4.18594 57.7362 4.19357C57.6593 4.20139 57.5791 4.19284 57.5562 4.17448C57.5252 4.1494 57.5192 4.15158 57.5312 4.18339C57.5688 4.28265 57.5001 4.30392 57.093 4.31828C56.8715 4.32628 56.6523 4.33737 56.6055 4.343C56.5587 4.34882 56.528 4.34173 56.5372 4.32737C56.563 4.28683 56.5084 4.29683 56.4364 4.34573C56.4004 4.37009 56.3623 4.38154 56.3514 4.371C56.3406 4.36045 56.3318 4.36936 56.3318 4.391C56.3318 4.4219 56.3207 4.42135 56.279 4.38845C56.25 4.36554 56.2358 4.36227 56.2476 4.38118C56.2897 4.44971 56.1842 4.46935 55.7784 4.46862C55.5511 4.46826 55.3653 4.4768 55.3651 4.48771C55.3651 4.49862 55.3245 4.50461 55.2746 4.50134C55.2026 4.49643 55.1863 4.50643 55.1949 4.54988C55.2072 4.61187 55.2201 4.60914 54.8664 4.61842C54.7204 4.62241 54.5233 4.62987 54.4279 4.63532C54.3324 4.64078 54.2376 4.63514 54.2174 4.62296C54.197 4.61078 54.1803 4.61514 54.1803 4.63278C54.1803 4.65059 54.1487 4.66586 54.1102 4.66714C54.0449 4.66913 54.0441 4.67077 54.1012 4.6924C54.203 4.73113 54.0196 4.76567 53.6754 4.77257C53.317 4.77985 53.1654 4.80366 53.1516 4.85474C53.1016 5.03708 53.1256 22.8089 53.1757 22.9045C53.2064 22.9629 53.2472 23.0076 53.2666 23.004C53.2859 23.0003 53.6541 22.996 54.0846 22.9945L54.8675 22.9916L54.9161 22.9194C54.9897 22.8104 54.9861 23.1065 54.9887 16.9889L54.991 11.2398H56.3941H57.7972V17.0402V22.8405L57.8674 22.9187L57.9375 22.9971H61.1336H64.3295L64.3997 22.9187L64.4698 22.8405V15.9243V9.00811L64.3978 8.94248L64.326 8.87686L61.9891 8.86904L59.6525 8.86122V7.78575V6.7101H65.8885C70.0095 6.7101 72.1325 6.69973 72.1481 6.67974C72.1627 6.66065 72.184 6.66629 72.2055 6.69501C72.2345 6.73373 72.2371 6.73264 72.2225 6.68828C72.213 6.65974 72.219 6.62811 72.2356 6.61811C72.2523 6.60811 72.2579 6.58721 72.248 6.57157C72.238 6.55612 72.2502 6.5434 72.2749 6.5434C72.3892 6.5434 72.3915 6.50267 72.3901 4.50334C72.3887 2.41675 72.386 2.36221 72.2886 2.36221C72.241 2.36221 72.2296 2.3464 72.2399 2.29404C72.2521 2.23169 71.9954 2.17915 71.9806 2.24114ZM57.7972 7.55851V8.99757H56.3941H54.991V7.55851V6.11928H56.3941H57.7972V7.55851ZM72.2031 8.86122C72.2027 8.88122 71.3827 8.88904 69.791 8.88431L67.3793 8.87704L67.3432 8.95394C67.3163 9.01138 67.3073 10.7818 67.3073 15.9525V22.8744H67.4892C67.6495 22.8744 67.6757 22.8656 67.7112 22.8011C67.7333 22.7609 67.779 22.7209 67.8123 22.7124C67.8457 22.704 67.8807 22.6688 67.8901 22.6342C67.9013 22.5922 67.9324 22.5713 67.9827 22.5713C68.0244 22.5713 68.0895 22.5391 68.1273 22.4997C68.1649 22.4604 68.2259 22.4192 68.2627 22.4079C68.2994 22.3966 68.3366 22.3606 68.3454 22.3279C68.3544 22.2952 68.3877 22.2683 68.4199 22.2683C68.4719 22.2683 68.5451 22.217 68.7589 22.0307C68.7941 22 68.8607 21.9658 68.9067 21.9545C68.9529 21.9432 68.989 21.924 68.9871 21.9118C68.9763 21.8438 69.001 21.8165 69.0906 21.7974C69.1963 21.7749 69.2816 21.7124 69.2494 21.6811C69.2388 21.6707 69.2614 21.6624 69.2997 21.6624C69.3706 21.6624 69.4872 21.5751 69.4588 21.5433C69.4502 21.5338 69.4734 21.5218 69.5104 21.5168C69.5512 21.5111 69.585 21.4784 69.5966 21.4333C69.611 21.3779 69.6371 21.3591 69.701 21.3584C69.7916 21.3573 69.8952 21.2973 69.8952 21.2459C69.8952 21.229 69.9244 21.2075 69.96 21.1984C69.9955 21.1895 70.0318 21.1552 70.0408 21.1221C70.0513 21.083 70.0937 21.0554 70.1628 21.0428C70.2209 21.0321 70.2832 20.9968 70.3014 20.9641C70.3201 20.9301 70.3665 20.9048 70.4103 20.9048C70.4647 20.9048 70.4918 20.8841 70.5053 20.8321C70.519 20.7789 70.5526 20.754 70.6303 20.7398C70.6886 20.7292 70.7506 20.6947 70.768 20.6632C70.7852 20.6318 70.8379 20.6016 70.8853 20.5963C70.9466 20.5894 70.9738 20.5674 70.9809 20.5185C70.9878 20.4718 71.0123 20.4504 71.0589 20.45C71.164 20.4495 71.2682 20.416 71.2506 20.3884C71.2306 20.3571 71.3619 20.2659 71.3969 20.2868C71.4113 20.2955 71.4231 20.2873 71.4231 20.2686C71.4231 20.25 71.4358 20.2424 71.4514 20.2517C71.4669 20.2611 71.4723 20.2415 71.4633 20.208C71.4497 20.1573 71.4622 20.1475 71.5415 20.1475C71.6603 20.1475 71.7397 20.119 71.7176 20.0841C71.6981 20.0537 71.8901 19.9314 71.9247 19.9521C71.937 19.9595 71.94 19.9384 71.931 19.9052C71.9174 19.8543 71.9299 19.8445 72.0092 19.8445C72.1344 19.8445 72.2025 19.817 72.2025 19.7665C72.2025 19.7439 72.2306 19.7108 72.265 19.693C72.2992 19.6752 72.3273 19.6405 72.3273 19.6161C72.3273 19.5918 72.3409 19.5718 72.3574 19.5718C72.3741 19.5718 72.3797 19.5514 72.3698 19.5263C72.3598 19.5012 72.3673 19.4809 72.3864 19.4809C72.4053 19.4809 72.4208 19.4665 72.4208 19.4487C72.4208 19.4311 72.4104 19.4231 72.3974 19.4307C72.3845 19.4385 72.381 17.1227 72.3896 14.2848C72.3982 11.4466 72.3937 9.13155 72.3799 9.13991C72.3658 9.14827 72.3587 9.13082 72.3641 9.10119C72.3705 9.06701 72.3499 9.04083 72.3084 9.02992C72.2708 9.02011 72.2461 8.99193 72.2504 8.96375C72.2547 8.93685 72.2459 8.89595 72.2309 8.87286C72.2158 8.84977 72.2033 8.84468 72.2031 8.86122Z" fill="black"/>
<path fill-rule="evenodd" clip-rule="evenodd" d="M72.2959 2.2458C72.3217 2.26816 72.361 2.30688 72.3834 2.33197C72.4179 2.37014 72.4197 2.36542 72.3956 2.30161C72.3797 2.25998 72.3404 2.22126 72.308 2.21562C72.2566 2.20653 72.2551 2.21035 72.2959 2.2458ZM69.6333 2.56157C69.6051 2.63338 69.6103 2.66519 69.6507 2.66519C69.6708 2.66519 69.678 2.65628 69.667 2.64555C69.6558 2.63465 69.6767 2.60065 69.7134 2.56975C69.7793 2.51412 69.7794 2.51376 69.716 2.51376C69.681 2.51376 69.6438 2.53521 69.6333 2.56157ZM64.1034 3.26219C64.0568 3.27091 64.0332 3.29709 64.0332 3.33963C64.0332 3.39417 64.039 3.39726 64.0721 3.36035C64.0937 3.33618 64.1315 3.29964 64.1563 3.27873C64.1812 3.25783 64.1952 3.24274 64.1876 3.24492C64.1797 3.24728 64.1419 3.2551 64.1034 3.26219ZM63.0043 3.41744C63.0043 3.43125 63.0464 3.43653 63.0978 3.42907C63.1493 3.4218 63.1914 3.41053 63.1914 3.40398C63.1914 3.39762 63.1493 3.39235 63.0978 3.39235C63.0464 3.39235 63.0043 3.40362 63.0043 3.41744ZM61.8895 3.56396C61.8681 3.57232 61.8506 3.5925 61.8506 3.60868C61.8506 3.62504 61.8668 3.6285 61.8868 3.6165C61.9067 3.6045 61.9664 3.58468 62.0193 3.57232L62.1156 3.54996L62.0221 3.54942C61.9707 3.54887 61.911 3.55542 61.8895 3.56396ZM60.7789 3.71939C60.7705 3.73248 60.8117 3.73775 60.8706 3.73121C60.9294 3.72448 60.9774 3.71376 60.9774 3.70721C60.9774 3.68431 60.7939 3.69558 60.7789 3.71939ZM58.4397 4.07661C58.4141 4.14114 58.4156 4.14987 58.4518 4.14987C58.4691 4.14987 58.4795 4.13278 58.4752 4.11188C58.4709 4.09115 58.485 4.07752 58.5065 4.0817C58.528 4.08588 58.5454 4.07552 58.5454 4.05898C58.5454 4.01007 58.4603 4.02425 58.4397 4.07661ZM57.3477 4.22986C57.3368 4.25731 57.335 4.28658 57.3436 4.29476C57.3522 4.30312 57.3679 4.28767 57.3787 4.2604C57.3894 4.23313 57.4109 4.21822 57.4263 4.2275C57.4416 4.23677 57.4541 4.22986 57.4541 4.21223C57.4541 4.16096 57.3692 4.17514 57.3477 4.22986ZM53.1309 4.8025C53.1208 4.82831 53.1211 4.85776 53.1318 4.86813C53.1425 4.87849 53.1513 4.8654 53.1513 4.83886C53.1513 4.81232 53.1758 4.78432 53.2059 4.77668C53.257 4.7636 53.257 4.7625 53.2048 4.75923C53.1743 4.75741 53.141 4.77687 53.1309 4.8025ZM2.44166 5.53348C2.43025 5.54457 2.4209 9.48506 2.4209 14.29V23.0263L3.87864 23.0184L5.33638 23.0106L5.34461 22.2607L5.35303 21.5109H5.43048C5.49764 21.5109 5.50775 21.5243 5.50775 21.6143C5.50775 21.7561 5.53525 21.8137 5.6026 21.8137C5.63777 21.8137 5.66321 21.8397 5.66938 21.8819C5.67556 21.9252 5.70437 21.9535 5.74758 21.9595C5.79005 21.9655 5.81942 21.9941 5.82541 22.0353C5.83158 22.0766 5.86096 22.1051 5.90342 22.1111C5.94589 22.1169 5.97526 22.1455 5.98144 22.1868C5.98742 22.2278 6.01679 22.2567 6.05833 22.2624C6.0993 22.268 6.13297 22.3007 6.14476 22.3458C6.16141 22.4104 6.18143 22.4198 6.30359 22.4198C6.43174 22.4198 6.44315 22.426 6.44315 22.4954C6.44315 22.5554 6.45887 22.5712 6.51892 22.5712C6.57392 22.5712 6.5975 22.5901 6.60479 22.6394C6.61321 22.6974 6.63641 22.709 6.76082 22.7167C6.8841 22.7245 6.90861 22.7363 6.91684 22.7925C6.92489 22.8487 6.9494 22.8605 7.07156 22.8681C7.19597 22.8759 7.21954 22.8879 7.236 22.9515C7.25396 23.0212 7.268 23.0257 7.4693 23.0257C7.67191 23.0257 7.68481 23.0299 7.70315 23.1015L7.72279 23.1771H8.328C8.9319 23.1771 8.9334 23.1773 8.94331 23.2453C8.95267 23.3102 8.96651 23.3135 9.23385 23.3135C9.49502 23.3135 9.51653 23.3088 9.54534 23.2453C9.57546 23.1786 9.58669 23.1771 10.0982 23.1771H10.6201L10.6394 23.1028C10.6574 23.0334 10.6742 23.0277 10.8817 23.0194C11.086 23.0114 11.1054 23.0048 11.1146 22.9425C11.1237 22.8797 11.141 22.8743 11.3258 22.8743C11.5119 22.8743 11.5293 22.8685 11.5568 22.7985C11.5817 22.7349 11.6066 22.7227 11.7127 22.7227C11.8188 22.7227 11.8436 22.7105 11.8685 22.647C11.8895 22.5938 11.9217 22.5712 11.977 22.5712C12.0401 22.5712 12.0556 22.5563 12.0556 22.4954C12.0556 22.426 12.0672 22.4198 12.1954 22.4198C12.3185 22.4198 12.3373 22.4107 12.3547 22.344C12.3688 22.2896 12.3953 22.2682 12.4488 22.2682C12.5076 22.2682 12.5233 22.2522 12.5233 22.1926C12.5233 22.1319 12.539 22.1168 12.6013 22.1168C12.6636 22.1168 12.6793 22.1017 12.6793 22.041C12.6793 21.9728 12.6917 21.9653 12.8047 21.9653C12.91 21.9653 12.9351 21.953 12.96 21.8895C12.9762 21.8479 13.0112 21.8137 13.0378 21.8137C13.0643 21.8137 13.0995 21.7797 13.1158 21.7381C13.1321 21.6965 13.1672 21.6623 13.1938 21.6623C13.2475 21.6623 13.3029 21.5461 13.3029 21.4331C13.3029 21.3745 13.319 21.3592 13.3809 21.3592C13.4432 21.3592 13.4587 21.3442 13.4587 21.2836C13.4587 21.2229 13.4744 21.2078 13.5367 21.2078C13.599 21.2078 13.6147 21.1927 13.6147 21.132C13.6147 21.078 13.6316 21.0564 13.6737 21.0564C13.7431 21.0564 13.7706 20.9997 13.7706 20.857C13.7706 20.7666 13.7805 20.7533 13.8486 20.7533C13.9109 20.7533 13.9264 20.7382 13.9264 20.6775C13.9264 20.6299 13.9442 20.6019 13.9739 20.6019C14.0273 20.6019 14.0824 20.485 14.0824 20.3727C14.0824 20.3207 14.0997 20.2989 14.1408 20.2989C14.2067 20.2989 14.2383 20.1945 14.2383 19.9769C14.2383 19.8558 14.245 19.8444 14.3163 19.8444C14.3878 19.8444 14.3941 19.8333 14.3941 19.708C14.3941 19.633 14.4072 19.5717 14.4231 19.5717C14.5052 19.5717 14.5501 19.4695 14.5501 19.2817C14.5501 19.1114 14.5574 19.0869 14.6085 19.0869C14.6843 19.0869 14.706 18.9811 14.706 18.6135C14.706 18.3497 14.7105 18.3295 14.7683 18.3295C14.8665 18.3295 14.8665 15.2122 14.7683 15.1873C14.712 15.1729 14.706 15.1458 14.706 14.906C14.706 14.557 14.6833 14.4512 14.6085 14.4512C14.5574 14.4512 14.5501 14.4267 14.5501 14.2565C14.5501 14.0687 14.5052 13.9666 14.4231 13.9666C14.4072 13.9666 14.3941 13.9137 14.3941 13.8491C14.3941 13.6519 14.3608 13.5423 14.3008 13.5423C14.259 13.5423 14.2415 13.5072 14.2256 13.3908C14.2093 13.2714 14.1928 13.2394 14.1477 13.2394C14.1025 13.2394 14.086 13.2074 14.0697 13.0878C14.0529 12.9642 14.0377 12.9363 13.9878 12.9363C13.9433 12.9363 13.9264 12.9156 13.9264 12.8605C13.9264 12.8011 13.9107 12.7849 13.8525 12.7849C13.7874 12.7849 13.7762 12.7669 13.7579 12.6333C13.7414 12.5119 13.7255 12.4819 13.6782 12.4819C13.6406 12.4819 13.6153 12.457 13.6091 12.4137C13.6026 12.3699 13.574 12.3421 13.5289 12.3359C13.4782 12.3288 13.4587 12.3059 13.4587 12.2525C13.4587 12.1941 13.4426 12.1788 13.3809 12.1788C13.3184 12.1788 13.3029 12.1637 13.3029 12.1032C13.3029 12.0425 13.2873 12.0274 13.2249 12.0274C13.1626 12.0274 13.147 12.0123 13.147 11.9516C13.147 11.8911 13.1313 11.876 13.069 11.876C13.0067 11.876 12.991 11.8607 12.991 11.8002C12.991 11.7402 12.9753 11.7244 12.9152 11.7244C12.8604 11.7244 12.8367 11.7056 12.8296 11.6562C12.8234 11.6135 12.7946 11.5846 12.7523 11.5787C12.7115 11.5731 12.6776 11.5406 12.666 11.4955C12.6492 11.4308 12.6294 11.4215 12.5072 11.4215C12.3789 11.4215 12.3675 11.4151 12.3675 11.3457C12.3675 11.285 12.3519 11.2699 12.2887 11.2699C12.2335 11.2699 12.2012 11.2473 12.1804 11.1943C12.1555 11.1306 12.1304 11.1184 12.0245 11.1184C11.9185 11.1184 11.8934 11.1063 11.8685 11.0426C11.8412 10.9726 11.8236 10.967 11.6377 10.967C11.4526 10.967 11.4356 10.9614 11.4264 10.8988C11.4173 10.8363 11.3978 10.8299 11.1935 10.8218C10.9857 10.8136 10.9692 10.8078 10.9511 10.7381L10.9318 10.6632L9.63065 10.6712L8.32968 10.6791L8.31958 10.7472C8.31004 10.8125 8.29676 10.8154 8.01632 10.8154C7.72915 10.8154 7.72242 10.817 7.70315 10.8912C7.68575 10.959 7.66779 10.967 7.53122 10.967C7.38922 10.967 7.37856 10.9723 7.37856 11.0426C7.37856 11.1134 7.36827 11.1184 7.22272 11.1184C7.07811 11.1184 7.06688 11.1239 7.06688 11.1926C7.06688 11.2593 7.05248 11.2675 6.91871 11.2759C6.79225 11.2837 6.76924 11.2951 6.76063 11.3533C6.75352 11.4026 6.72976 11.4215 6.67495 11.4215C6.61489 11.4215 6.59918 11.4371 6.59918 11.4971C6.59918 11.5655 6.58664 11.5729 6.47365 11.5729C6.36851 11.5729 6.34325 11.5851 6.31856 11.6487C6.30228 11.6904 6.26711 11.7244 6.24054 11.7244C6.21398 11.7244 6.17881 11.7585 6.16253 11.8002C6.14625 11.8418 6.11127 11.876 6.0847 11.876C6.05814 11.876 6.02297 11.91 6.00669 11.9516C5.99042 11.9934 5.95524 12.0274 5.92849 12.0274C5.90174 12.0274 5.86732 12.0581 5.85179 12.0956C5.83476 12.1368 5.82279 10.853 5.82167 8.83843L5.81961 5.5133H4.14111C3.21787 5.5133 2.45326 5.52239 2.44166 5.53348ZM35.7111 5.53348C35.6997 5.54457 35.6904 6.94199 35.6904 8.639V11.7244H35.6124C35.5501 11.7244 35.5343 11.7093 35.5343 11.6487C35.5343 11.588 35.5188 11.5729 35.4565 11.5729C35.394 11.5729 35.3785 11.5578 35.3785 11.4971C35.3785 11.4371 35.3628 11.4215 35.3027 11.4215C35.2479 11.4215 35.2242 11.4026 35.2171 11.3533C35.2084 11.2951 35.1853 11.2837 35.059 11.2759C34.9252 11.2675 34.9108 11.2593 34.9108 11.1926C34.9108 11.1239 34.8994 11.1184 34.755 11.1184C34.6094 11.1184 34.5989 11.1134 34.5989 11.0426C34.5989 10.9719 34.5886 10.967 34.4431 10.967C34.2975 10.967 34.2873 10.9619 34.2873 10.8912C34.2873 10.8172 34.2818 10.8154 34.0555 10.8154C33.839 10.8154 33.8231 10.811 33.8139 10.7472L33.8038 10.6791H32.432H31.0601L31.05 10.7472C31.0408 10.811 31.0249 10.8154 30.8085 10.8154C30.5832 10.8154 30.5767 10.8176 30.5767 10.8899C30.5767 10.9612 30.5675 10.9647 30.3507 10.9732C30.1449 10.9814 30.1238 10.9881 30.115 11.0486C30.1067 11.1048 30.0822 11.1166 29.9589 11.1244C29.8345 11.1323 29.8113 11.1437 29.8029 11.2017C29.7956 11.2512 29.772 11.2699 29.717 11.2699C29.657 11.2699 29.6413 11.2857 29.6413 11.3457C29.6413 11.4164 29.631 11.4215 29.4854 11.4215C29.3399 11.4215 29.3296 11.4264 29.3296 11.4971C29.3296 11.5578 29.3139 11.5729 29.2516 11.5729C29.1893 11.5729 29.1736 11.588 29.1736 11.6487C29.1736 11.7093 29.158 11.7244 29.0957 11.7244C29.0333 11.7244 29.0177 11.7396 29.0177 11.8002C29.0177 11.8696 29.0063 11.876 28.878 11.876C28.7551 11.876 28.736 11.8849 28.7188 11.9516C28.7066 11.9987 28.6771 12.0274 28.6408 12.0274C28.6045 12.0274 28.5749 12.0561 28.5627 12.1032C28.5511 12.1485 28.521 12.1788 28.4875 12.1788C28.4215 12.1788 28.3942 12.2374 28.3942 12.3783C28.3942 12.4686 28.3841 12.4819 28.3162 12.4819C28.2539 12.4819 28.2382 12.497 28.2382 12.5577C28.2382 12.6182 28.2226 12.6333 28.1603 12.6333C28.0979 12.6333 28.0823 12.6486 28.0823 12.7091C28.0823 12.7696 28.0668 12.7849 28.0043 12.7849C27.933 12.7849 27.9265 12.7962 27.9265 12.9191C27.9265 13.0352 27.9169 13.0547 27.8563 13.0631C27.806 13.07 27.7834 13.0963 27.7763 13.156C27.7695 13.213 27.7484 13.2394 27.7095 13.2394C27.6421 13.2394 27.6146 13.297 27.6146 13.4388C27.6146 13.5201 27.6021 13.5423 27.5555 13.5423C27.4801 13.5423 27.4588 13.5992 27.4588 13.8002C27.4588 13.9453 27.4513 13.9633 27.3886 13.972C27.3289 13.9802 27.317 14.0027 27.3091 14.1227C27.3011 14.2434 27.2887 14.2663 27.2232 14.2823C27.149 14.3005 27.1469 14.3087 27.1469 14.5861C27.1469 14.8588 27.1439 14.8717 27.0768 14.881C27.01 14.89 27.0062 14.9053 26.9978 15.1991C26.9894 15.4916 26.9853 15.5083 26.9198 15.5172L26.8508 15.5269L26.8425 17.0032L26.8345 18.4797L26.9127 18.4988C26.9909 18.5179 26.9911 18.5188 26.9911 18.8776C26.9911 19.2359 26.9913 19.2374 27.0689 19.2563C27.1426 19.2743 27.1469 19.2867 27.1469 19.4835C27.1469 19.6804 27.1512 19.6928 27.2249 19.7108C27.2958 19.728 27.3028 19.7442 27.3028 19.8906C27.3028 20.0894 27.3243 20.1474 27.398 20.1474C27.4442 20.1474 27.4571 20.1751 27.4648 20.2912C27.4728 20.413 27.485 20.4367 27.5428 20.4447C27.5989 20.4525 27.6129 20.4768 27.6208 20.581C27.6281 20.6784 27.6464 20.7148 27.7003 20.7379C27.7433 20.7561 27.7705 20.7942 27.7705 20.8362C27.7705 20.8891 27.7882 20.9048 27.8485 20.9048C27.9212 20.9048 27.9265 20.9149 27.9265 21.0564C27.9265 21.1976 27.9315 21.2078 28.0043 21.2078C28.0668 21.2078 28.0823 21.2229 28.0823 21.2836C28.0823 21.3442 28.0979 21.3592 28.1603 21.3592C28.2226 21.3592 28.2382 21.3745 28.2382 21.4351C28.2382 21.4956 28.2539 21.5109 28.3162 21.5109C28.3841 21.5109 28.3942 21.5241 28.3942 21.6143C28.3942 21.7554 28.4215 21.8137 28.4875 21.8137C28.521 21.8137 28.5511 21.8441 28.5627 21.8895C28.5749 21.9366 28.6045 21.9653 28.6408 21.9653C28.6771 21.9653 28.7066 21.9939 28.7188 22.041C28.736 22.1077 28.7551 22.1168 28.878 22.1168C29.0063 22.1168 29.0177 22.1229 29.0177 22.1926C29.0177 22.2531 29.0333 22.2682 29.0957 22.2682C29.158 22.2682 29.1736 22.2835 29.1736 22.344C29.1736 22.404 29.1893 22.4198 29.2493 22.4198C29.3043 22.4198 29.3279 22.4385 29.3352 22.488C29.3436 22.5462 29.3668 22.5574 29.4933 22.5652C29.6269 22.5736 29.6413 22.5818 29.6413 22.6487C29.6413 22.7174 29.6527 22.7227 29.7973 22.7227C29.9427 22.7227 29.9531 22.7278 29.9531 22.7985C29.9531 22.8692 29.9636 22.8743 30.109 22.8743C30.2545 22.8743 30.265 22.8792 30.265 22.9499C30.265 23.0239 30.2702 23.0257 30.4966 23.0257C30.7131 23.0257 30.729 23.0303 30.7383 23.0939C30.7481 23.1612 30.7552 23.1622 31.284 23.1704C31.8112 23.1784 31.82 23.1797 31.8298 23.246C31.8389 23.3095 31.8567 23.314 32.128 23.3222L32.4164 23.3309V23.2548V23.1784L33.0321 23.1702C33.6405 23.1622 33.6482 23.1613 33.6577 23.0952C33.6667 23.0343 33.6877 23.0275 33.8916 23.0194C34.097 23.0114 34.1165 23.0048 34.1256 22.9425C34.1344 22.8823 34.1537 22.8743 34.2893 22.8743C34.4326 22.8743 34.4431 22.869 34.4431 22.7985C34.4431 22.7278 34.4536 22.7227 34.5989 22.7227C34.7435 22.7227 34.755 22.7174 34.755 22.6487C34.755 22.5818 34.7694 22.5736 34.9029 22.5652C35.0294 22.5574 35.0526 22.5462 35.061 22.488C35.0683 22.4385 35.0919 22.4198 35.1469 22.4198C35.207 22.4198 35.2227 22.404 35.2227 22.344C35.2227 22.2835 35.2382 22.2682 35.3005 22.2682C35.363 22.2682 35.3785 22.2531 35.3785 22.1926C35.3785 22.1319 35.394 22.1168 35.4565 22.1168C35.5188 22.1168 35.5343 22.1017 35.5343 22.041C35.5343 21.9804 35.5501 21.9653 35.6124 21.9653C35.6747 21.9653 35.6904 21.9501 35.6904 21.8895C35.6904 21.829 35.7059 21.8137 35.7682 21.8137C35.8307 21.8137 35.8462 21.7986 35.8462 21.7381C35.8462 21.6339 35.9927 21.627 36.0077 21.7305C36.014 21.7741 36.0428 21.8021 36.0872 21.8083C36.156 21.8177 36.1568 21.8234 36.1652 22.4142L36.1736 23.0106L37.6822 23.0184C38.7703 23.0241 39.2028 23.0168 39.2335 22.9921C39.2648 22.9668 39.276 22.8696 39.276 22.6281V22.2986H39.1982H39.1201V13.9058V5.5133H37.4259C36.4943 5.5133 35.7225 5.52239 35.7111 5.53348ZM72.3456 6.61913C72.3039 6.68094 72.3026 6.69494 72.3383 6.69494C72.3625 6.69494 72.3889 6.66076 72.3971 6.61913C72.4053 6.5775 72.4085 6.54332 72.4044 6.54332C72.4001 6.54332 72.3737 6.5775 72.3456 6.61913ZM67.2875 8.8906C67.278 8.91496 67.2772 8.95241 67.286 8.97386C67.295 8.99513 67.3032 8.98313 67.3047 8.94714C67.306 8.91096 67.3246 8.87461 67.3461 8.86606C67.3766 8.85424 67.3764 8.85024 67.3451 8.84843C67.3231 8.84715 67.2972 8.86606 67.2875 8.8906ZM72.2465 8.86879C72.2594 8.88133 72.2863 8.89206 72.3064 8.89297C72.3264 8.89369 72.3393 8.9106 72.335 8.93078C72.3307 8.95078 72.3412 8.96732 72.3584 8.96732C72.4087 8.96732 72.3941 8.8846 72.3402 8.86443C72.2718 8.83897 72.2184 8.84152 72.2465 8.86879ZM43.8179 10.6841C43.8065 10.6952 43.7972 10.7294 43.7972 10.76C43.7972 10.8089 43.7693 10.8154 43.5633 10.8154C43.3347 10.8154 43.3295 10.8172 43.3295 10.8912C43.3295 10.9648 43.3231 10.967 43.1119 10.967C42.9069 10.967 42.893 10.9712 42.8751 11.0412C42.8586 11.1048 42.835 11.1166 42.7106 11.1244C42.5884 11.1321 42.5639 11.1441 42.5559 11.2001C42.5479 11.2546 42.5226 11.2682 42.4156 11.2759C42.3151 11.283 42.2779 11.301 42.2541 11.3533C42.2352 11.3951 42.1961 11.4215 42.1527 11.4215C42.0989 11.4215 42.0822 11.4388 42.0822 11.4955C42.0822 11.5609 42.0669 11.5706 41.9497 11.5787C41.8482 11.5858 41.8102 11.6036 41.787 11.6551C41.7703 11.6918 41.7282 11.726 41.6934 11.7307C41.6551 11.7362 41.6263 11.7665 41.6201 11.8078C41.613 11.8571 41.5892 11.876 41.5344 11.876C41.4744 11.876 41.4587 11.8916 41.4587 11.9516C41.4587 12.0123 41.4431 12.0274 41.3806 12.0274C41.3183 12.0274 41.3028 12.0425 41.3028 12.1032C41.3028 12.1637 41.2871 12.1788 41.2248 12.1788C41.1625 12.1788 41.1468 12.1941 41.1468 12.2546C41.1468 12.3152 41.1313 12.3304 41.069 12.3304C41.0065 12.3304 40.991 12.3455 40.991 12.4061C40.991 12.4602 40.9741 12.4819 40.9318 12.4819C40.8626 12.4819 40.8351 12.5386 40.8351 12.6813C40.8351 12.7716 40.825 12.7849 40.7571 12.7849C40.6948 12.7849 40.6791 12.8 40.6791 12.8605C40.6791 12.9213 40.6636 12.9363 40.6013 12.9363C40.5298 12.9363 40.5233 12.9476 40.5233 13.0705C40.5233 13.1867 40.5137 13.2061 40.4531 13.2145C40.4028 13.2214 40.3801 13.2478 40.373 13.3076C40.3663 13.3645 40.3451 13.3908 40.3062 13.3908C40.2389 13.3908 40.2114 13.4485 40.2114 13.5902C40.2114 13.6717 40.1989 13.6939 40.1525 13.6939C40.0769 13.6939 40.0555 13.7506 40.0555 13.9516C40.0555 14.0967 40.0482 14.1147 39.9854 14.1234C39.9242 14.1318 39.9141 14.1536 39.9059 14.2921C39.898 14.4232 39.8862 14.4512 39.8389 14.4512C39.7603 14.4512 39.7437 14.5088 39.7437 14.7837C39.7437 15.0109 39.7407 15.0211 39.6659 15.0393L39.5878 15.0584V15.4938V15.9293L39.5095 15.9484L39.4311 15.9675L39.4393 16.9288L39.4475 17.8901L39.5169 17.8998C39.5845 17.909 39.5863 17.9203 39.5948 18.3542C39.6032 18.7896 39.6049 18.7993 39.6735 18.8087C39.7407 18.818 39.7437 18.8309 39.7437 19.1036C39.7437 19.3825 39.7454 19.3892 39.8217 19.4077C39.8926 19.425 39.8997 19.4414 39.8997 19.5877C39.8997 19.7875 39.921 19.8444 39.9964 19.8444C40.043 19.8444 40.0555 19.8666 40.0555 19.948C40.0555 20.0898 40.083 20.1474 40.1506 20.1474C40.1957 20.1474 40.2099 20.1749 40.2174 20.2761C40.2249 20.3756 40.243 20.4118 40.2973 20.4348C40.3403 20.4532 40.3674 20.4912 40.3674 20.5334C40.3674 20.5857 40.3852 20.6019 40.4436 20.6019C40.5124 20.6019 40.5208 20.6159 40.5294 20.7457C40.5375 20.8686 40.5491 20.8911 40.6089 20.8993C40.6598 20.9064 40.6791 20.9293 40.6791 20.9828C40.6791 21.0411 40.6954 21.0564 40.7571 21.0564C40.8194 21.0564 40.8351 21.0715 40.8351 21.132C40.8351 21.1927 40.8506 21.2078 40.9129 21.2078C40.9754 21.2078 40.991 21.2229 40.991 21.2836C40.991 21.3442 41.0065 21.3592 41.069 21.3592C41.1384 21.3592 41.1468 21.3718 41.1468 21.4745C41.1468 21.6196 41.1908 21.6623 41.3402 21.6623C41.4458 21.6623 41.4587 21.6705 41.4587 21.7381C41.4587 21.7986 41.4742 21.8137 41.5367 21.8137C41.599 21.8137 41.6145 21.829 41.6145 21.8895C41.6145 21.9501 41.6302 21.9653 41.6925 21.9653C41.7548 21.9653 41.7705 21.9804 41.7705 22.041C41.7705 22.1117 41.7808 22.1168 41.9264 22.1168C42.0719 22.1168 42.0822 22.1219 42.0822 22.1926C42.0822 22.2509 42.0983 22.2682 42.1527 22.2682C42.1961 22.2682 42.2352 22.2946 42.2541 22.3364C42.2775 22.3882 42.3153 22.4067 42.4107 22.4136C42.5052 22.4204 42.5439 22.4391 42.5666 22.4893C42.5927 22.5472 42.6249 22.5572 42.8071 22.5651C43.0073 22.5736 43.0176 22.5776 43.0176 22.6483C43.0176 22.7207 43.0242 22.7227 43.2481 22.7227C43.4679 22.7227 43.4795 22.7263 43.4982 22.7985L43.5177 22.8743H44.7332H45.9486V22.7985V22.7227H46.2605H46.5722V22.647C46.5722 22.5763 46.5826 22.5712 46.7282 22.5712C46.8736 22.5712 46.884 22.5662 46.884 22.4954C46.884 22.4247 46.8945 22.4198 47.0399 22.4198C47.1845 22.4198 47.1959 22.4144 47.1959 22.3456C47.1959 22.2787 47.2103 22.2707 47.3439 22.2624C47.4703 22.2544 47.4935 22.2431 47.502 22.1849C47.5093 22.1357 47.5328 22.1168 47.5878 22.1168C47.6479 22.1168 47.6636 22.101 47.6636 22.041C47.6636 21.9804 47.6791 21.9653 47.7414 21.9653C47.8039 21.9653 47.8194 21.9501 47.8194 21.8895C47.8194 21.829 47.835 21.8137 47.8974 21.8137C47.9597 21.8137 47.9753 21.7986 47.9753 21.7381C47.9753 21.6774 47.991 21.6623 48.0533 21.6623C48.1156 21.6623 48.1313 21.6472 48.1313 21.5865C48.1313 21.5265 48.147 21.5109 48.2071 21.5109C48.266 21.5109 48.2858 21.4921 48.2959 21.4274C48.303 21.3816 48.3111 21.593 48.3137 21.8972L48.3184 22.45H48.2404H48.1624V22.8872C48.1624 23.3177 48.1612 23.3246 48.0922 23.3342C48.0323 23.3424 48.0207 23.3649 48.0125 23.4891C48.0045 23.6111 47.9908 23.6391 47.9268 23.6627C47.8634 23.6862 47.8507 23.7112 47.8507 23.8134C47.8507 23.9165 47.8381 23.9409 47.7727 23.965C47.7076 23.989 47.6946 24.0136 47.6946 24.1136C47.6946 24.2148 47.6838 24.235 47.6245 24.2432C47.5805 24.2492 47.5508 24.2772 47.5448 24.3181C47.539 24.3579 47.5055 24.3908 47.4591 24.4021C47.4099 24.4141 47.383 24.4422 47.383 24.4813C47.383 24.5184 47.3523 24.5535 47.305 24.5709C47.2621 24.5868 47.2269 24.6197 47.2269 24.6438C47.2269 24.668 47.1955 24.6922 47.1568 24.6976C47.1125 24.7036 47.0831 24.7316 47.0769 24.7736C47.0709 24.8149 47.0415 24.8434 46.9991 24.8493C46.9559 24.8553 46.9271 24.8838 46.9209 24.9269C46.9128 24.9821 46.8909 24.9951 46.8064 24.9951C46.6625 24.9951 46.6034 25.0221 46.6034 25.0876C46.6034 25.1325 46.5748 25.145 46.4552 25.1525C46.329 25.1605 46.3058 25.1718 46.2971 25.2299C46.288 25.2936 46.2721 25.2981 46.0577 25.2981C45.8014 25.2981 45.668 25.3341 45.668 25.4034C45.668 25.4437 45.5582 25.4495 44.8106 25.4495C44.0784 25.4495 43.953 25.4432 43.953 25.4052C43.953 25.3259 43.8383 25.2981 43.5104 25.2981C43.2064 25.2981 43.1867 25.2943 43.1575 25.2299C43.1308 25.1705 43.1001 25.1607 42.9164 25.1528C42.7596 25.1461 42.7059 25.1329 42.7059 25.1009C42.7059 25.0334 42.6002 24.9951 42.4139 24.9951C42.2599 24.9951 42.2414 24.9881 42.2326 24.9269C42.2242 24.8693 42.2006 24.8574 42.0813 24.8498C41.9705 24.8427 41.9335 24.8264 41.9097 24.774C41.8871 24.7238 41.8484 24.7051 41.7539 24.6984C41.6592 24.6915 41.6207 24.6727 41.5979 24.6226C41.5746 24.5708 41.5367 24.5537 41.43 24.5462C41.1659 24.5279 41.1468 24.5437 41.1468 24.7804C41.1468 24.9772 41.1427 24.9896 41.069 25.0076C40.9945 25.0258 40.991 25.0369 40.991 25.2512C40.991 25.461 40.9863 25.4763 40.9208 25.4853C40.8546 25.4944 40.8501 25.5108 40.8417 25.7733C40.8332 26.0344 40.8286 26.0522 40.7638 26.0613C40.7008 26.0698 40.6939 26.09 40.6856 26.2885C40.6774 26.4866 40.6703 26.507 40.6076 26.5157C40.5427 26.5246 40.5384 26.5421 40.53 26.8206L40.521 27.116H40.5979C40.6538 27.116 40.6776 27.1345 40.6847 27.1842C40.6933 27.2422 40.7165 27.2538 40.8409 27.2614C40.9642 27.2693 40.9885 27.2811 40.9968 27.3372C41.005 27.3934 41.0295 27.4052 41.1528 27.4131C41.2759 27.4207 41.3004 27.4325 41.3086 27.4887C41.3174 27.5492 41.3387 27.5561 41.5425 27.5641C41.7464 27.5723 41.7673 27.579 41.7763 27.6399C41.7851 27.7008 41.8061 27.7076 42.012 27.7157C42.2079 27.7234 42.2382 27.7321 42.2382 27.7806C42.2382 27.8612 42.296 27.8735 42.6773 27.8735C42.9957 27.8735 43.0176 27.8773 43.0176 27.9335C43.0176 28.0262 43.0395 28.0271 44.9352 28.0182L46.7125 28.0099L46.7226 27.9417C46.7321 27.8763 46.7448 27.8735 47.0401 27.8735C47.3693 27.8735 47.5076 27.8423 47.5076 27.7681C47.5076 27.7319 47.5476 27.7219 47.6922 27.7219C47.9169 27.7219 47.9753 27.7025 47.9753 27.6279C47.9753 27.5794 47.999 27.5705 48.1292 27.5705C48.3154 27.5705 48.443 27.5278 48.443 27.4652C48.443 27.4365 48.4718 27.4191 48.5189 27.4191C48.6347 27.4191 48.7548 27.3654 48.7548 27.3136C48.7548 27.2847 48.7836 27.2674 48.8329 27.2674C48.8948 27.2674 48.9107 27.2522 48.9107 27.1934C48.9107 27.1265 48.9251 27.1184 49.0588 27.11C49.1853 27.1022 49.2083 27.0909 49.2169 27.0327C49.224 26.9838 49.2478 26.9646 49.3006 26.9646C49.4117 26.9646 49.5344 26.9109 49.5344 26.8626C49.5344 26.839 49.5694 26.811 49.6122 26.8006C49.6614 26.7886 49.6903 26.7602 49.6903 26.7237C49.6903 26.6866 49.7155 26.6623 49.7604 26.6561C49.8055 26.6499 49.8341 26.6221 49.8405 26.5783C49.8478 26.5288 49.8713 26.5101 49.9263 26.5101C49.9864 26.5101 50.0021 26.4943 50.0021 26.4343C50.0021 26.3738 50.0176 26.3585 50.0799 26.3585C50.1402 26.3585 50.158 26.3428 50.158 26.2899C50.158 26.248 50.1851 26.2098 50.2281 26.1916C50.2824 26.1683 50.3005 26.1323 50.3078 26.0329C50.3164 25.9191 50.3263 25.904 50.3937 25.904C50.4535 25.904 50.4698 25.8884 50.4698 25.8304C50.4698 25.7771 50.4891 25.754 50.54 25.7471C50.5998 25.7388 50.6114 25.7164 50.6195 25.5935C50.6281 25.4635 50.6365 25.4495 50.7054 25.4495C50.7761 25.4495 50.7815 25.4386 50.7815 25.2981C50.7815 25.1567 50.7867 25.1467 50.8595 25.1467C50.9321 25.1467 50.9375 25.1363 50.9375 24.9972C50.9375 24.8654 50.9458 24.8467 51.0077 24.8382C51.0718 24.8293 51.0786 24.8104 51.0868 24.6107C51.0952 24.4124 51.1021 24.3922 51.1648 24.3835C51.2297 24.3746 51.2342 24.3572 51.2427 24.0786C51.2514 23.7872 51.2526 23.7832 51.3283 23.7832H51.4052V23.3288V22.8743H51.4831H51.5611V17.3599V11.8456H51.6398H51.7184L51.71 11.338L51.7014 10.8307L50.2436 10.8227L48.7861 10.8149V10.8908C48.7861 10.9517 48.7706 10.967 48.7081 10.967H48.6301L48.6254 11.5806C48.623 11.918 48.6149 12.1565 48.6078 12.1107C48.5977 12.0461 48.5777 12.0274 48.5189 12.0274C48.4587 12.0274 48.443 12.0118 48.443 11.9516C48.443 11.8911 48.4274 11.876 48.3651 11.876C48.3027 11.876 48.2871 11.8607 48.2871 11.8002C48.2871 11.7396 48.2716 11.7244 48.2091 11.7244C48.1468 11.7244 48.1313 11.7093 48.1313 11.6487C48.1313 11.588 48.1156 11.5729 48.0533 11.5729C47.991 11.5729 47.9753 11.5578 47.9753 11.4971C47.9753 11.4366 47.9597 11.4215 47.8974 11.4215C47.835 11.4215 47.8194 11.4062 47.8194 11.3457C47.8194 11.275 47.809 11.2699 47.6636 11.2699C47.518 11.2699 47.5076 11.265 47.5076 11.1943C47.5076 11.1343 47.4919 11.1184 47.4318 11.1184C47.377 11.1184 47.3532 11.0995 47.3461 11.0503C47.3369 10.9877 47.3175 10.9814 47.11 10.9732C46.8934 10.9647 46.884 10.9612 46.884 10.8899C46.884 10.8174 46.8777 10.8154 46.6502 10.8154C46.4216 10.8154 46.4163 10.8138 46.4163 10.7398V10.664H45.1275C44.4187 10.664 43.8294 10.6731 43.8179 10.6841ZM15.1814 15.0346L15.1892 19.2536L15.2586 19.2632C15.326 19.2725 15.3282 19.2843 15.3365 19.7024C15.3451 20.1222 15.3467 20.1325 15.4154 20.142C15.4809 20.1509 15.4856 20.1663 15.4856 20.3767C15.4856 20.5955 15.4876 20.6019 15.5621 20.6019C15.6356 20.6019 15.639 20.6108 15.6478 20.8215C15.6562 21.0215 15.6631 21.042 15.7256 21.0506C15.7834 21.0586 15.7956 21.0824 15.8034 21.2022C15.8115 21.3231 15.8234 21.3456 15.8831 21.3538C15.9338 21.3609 15.9533 21.3838 15.9533 21.4372C15.9533 21.4956 15.9693 21.5109 16.0311 21.5109C16.1039 21.5109 16.1091 21.5209 16.1091 21.6623C16.1091 21.8037 16.1143 21.8137 16.1871 21.8137C16.2494 21.8137 16.2649 21.829 16.2649 21.8895C16.2649 21.9501 16.2807 21.9653 16.343 21.9653C16.4052 21.9653 16.421 21.9804 16.421 22.041C16.421 22.1017 16.4365 22.1168 16.4988 22.1168C16.5613 22.1168 16.5768 22.1319 16.5768 22.1926C16.5768 22.2531 16.5923 22.2682 16.6548 22.2682C16.7171 22.2682 16.7326 22.2835 16.7326 22.344C16.7326 22.4045 16.7484 22.4198 16.8107 22.4198C16.873 22.4198 16.8887 22.4349 16.8887 22.4954C16.8887 22.5662 16.899 22.5712 17.0445 22.5712C17.1901 22.5712 17.2003 22.5763 17.2003 22.647C17.2003 22.7076 17.2161 22.7227 17.2784 22.7227C17.3407 22.7227 17.3564 22.7379 17.3564 22.7985C17.3564 22.869 17.3668 22.8743 17.51 22.8743C17.6458 22.8743 17.6649 22.8823 17.6737 22.9425C17.6828 23.0048 17.7025 23.0114 17.9077 23.0194C18.1118 23.0275 18.1328 23.0343 18.1416 23.0952C18.1513 23.1608 18.1614 23.1622 18.6873 23.1704C19.2145 23.1784 19.2231 23.1797 19.2328 23.246C19.2422 23.3095 19.2599 23.314 19.5312 23.3222L19.8195 23.3309V23.254V23.1771H20.4269H21.0344L21.0537 23.1028C21.0713 23.0343 21.0894 23.0277 21.2802 23.0195C21.4594 23.0117 21.4918 23.0015 21.5178 22.9437C21.5416 22.8914 21.5786 22.875 21.6894 22.8681C21.8078 22.8605 21.8323 22.8483 21.8403 22.7925C21.8486 22.7363 21.8731 22.7245 21.9964 22.7167C22.1208 22.709 22.144 22.6974 22.1524 22.6394C22.1597 22.5901 22.1833 22.5712 22.2383 22.5712C22.2978 22.5712 22.314 22.5554 22.314 22.4973C22.314 22.4318 22.3294 22.4222 22.4465 22.414C22.5488 22.4067 22.5861 22.3891 22.6098 22.3364C22.6287 22.2946 22.6678 22.2682 22.7112 22.2682C22.7656 22.2682 22.7817 22.2509 22.7817 22.1926C22.7817 22.1319 22.7973 22.1168 22.8596 22.1168C22.9221 22.1168 22.9376 22.1017 22.9376 22.041C22.9376 21.9804 22.9531 21.9653 23.0156 21.9653C23.0779 21.9653 23.0934 21.9501 23.0934 21.8895C23.0934 21.829 23.1091 21.8137 23.1714 21.8137C23.2315 21.8137 23.2494 21.7981 23.2496 21.7456C23.2498 21.7028 23.2784 21.6645 23.3267 21.6428L23.4036 21.6081L23.4122 22.0064C23.4206 22.3915 23.4232 22.4049 23.4898 22.4142C23.5551 22.4231 23.5594 22.4404 23.5679 22.717L23.5768 23.0106H25.0422H26.5077L26.5155 16.991C26.5208 13.1098 26.5125 10.9436 26.4929 10.893L26.4622 10.8149L24.7858 10.8229L23.1091 10.8307L23.1011 14.5917C23.0936 18.2181 23.0912 18.3533 23.0358 18.3673C22.9668 18.385 22.9376 18.5051 22.9376 18.7725C22.9376 18.942 22.9303 18.9658 22.8785 18.9658C22.8094 18.9658 22.7817 19.0223 22.7817 19.163C22.7817 19.2452 22.7683 19.2663 22.7116 19.2741C22.6517 19.2825 22.6399 19.305 22.6319 19.4277C22.6233 19.5577 22.6149 19.5717 22.5462 19.5717C22.4856 19.5717 22.4699 19.5873 22.4699 19.6475C22.4699 19.708 22.4543 19.7231 22.3919 19.7231C22.3296 19.7231 22.314 19.7384 22.314 19.7989C22.314 19.8595 22.2983 19.8747 22.236 19.8747C22.1737 19.8747 22.158 19.8898 22.158 19.9504C22.158 20.0111 22.1425 20.0262 22.0802 20.0262C22.0183 20.0262 22.0022 20.0414 22.0022 20.1003C22.0022 20.1671 21.9878 20.1752 21.854 20.1836C21.7288 20.1914 21.7045 20.2031 21.6963 20.2594C21.6881 20.3156 21.6636 20.3274 21.5403 20.3352C21.4159 20.3429 21.3927 20.3545 21.3842 20.4125L21.3741 20.4807H20.6748H19.9755V20.4048C19.9755 20.3341 19.965 20.3292 19.8195 20.3292C19.6741 20.3292 19.6637 20.3241 19.6637 20.2534C19.6637 20.1934 19.6479 20.1776 19.5879 20.1776C19.5331 20.1776 19.5093 20.1589 19.5022 20.1094C19.4958 20.0664 19.467 20.0378 19.424 20.0318C19.3813 20.026 19.352 19.9975 19.346 19.9562C19.3398 19.9142 19.3104 19.8862 19.2661 19.8802C19.2154 19.8731 19.1959 19.8502 19.1959 19.7968C19.1959 19.7389 19.1797 19.7231 19.1196 19.7231C19.051 19.7231 19.0425 19.7091 19.0339 19.5793C19.0259 19.4564 19.0141 19.4339 18.9542 19.4257C18.8923 19.4172 18.8841 19.3985 18.8841 19.2667C18.8841 19.1281 18.8787 19.1172 18.8074 19.1172C18.7316 19.1172 18.7303 19.1132 18.7215 18.8218C18.7131 18.5415 18.709 18.5259 18.6426 18.5168L18.5724 18.507V14.6612V10.8154H16.873H15.1735L15.1814 15.0346ZM8.97437 13.2772C8.98391 13.3416 9.00056 13.3459 9.27276 13.3541C9.556 13.3626 9.56124 13.3641 9.56124 13.4374C9.56124 13.5068 9.57228 13.5121 9.71708 13.5121C9.86263 13.5121 9.87311 13.517 9.87311 13.5877C9.87311 13.6462 9.8892 13.6635 9.94364 13.6635C9.98685 13.6635 10.0261 13.6899 10.0448 13.7317C10.0688 13.7844 10.1058 13.802 10.2082 13.8091C10.3253 13.8175 10.3408 13.8271 10.3408 13.8926C10.3408 13.9507 10.3569 13.9666 10.417 13.9666C10.4843 13.9666 10.4942 13.9815 10.5026 14.0953C10.5099 14.194 10.5283 14.2309 10.5812 14.2534C10.619 14.2696 10.6542 14.3105 10.659 14.3443C10.6645 14.381 10.6957 14.4096 10.7367 14.4152C10.7928 14.423 10.8068 14.4476 10.8145 14.5516C10.8218 14.6483 10.8405 14.6855 10.8927 14.7077C10.9443 14.7299 10.9638 14.7673 10.9707 14.8593C10.9776 14.9511 10.9969 14.9888 11.0487 15.0108C11.1026 15.0338 11.1194 15.0698 11.1266 15.1775C11.1344 15.2929 11.1469 15.3163 11.2049 15.3243C11.27 15.3333 11.2745 15.3505 11.2828 15.6272C11.2914 15.9055 11.2953 15.9212 11.3619 15.9304L11.4321 15.9401V16.9226V17.9052H11.354H11.2762V18.2083V18.5113H11.1982C11.126 18.5113 11.1202 18.5219 11.1202 18.6555C11.1202 18.7762 11.1088 18.8047 11.05 18.8298C10.9969 18.8525 10.9776 18.8891 10.9707 18.982C10.9638 19.0738 10.9443 19.1114 10.8927 19.1334C10.8401 19.1558 10.8218 19.1928 10.8145 19.2914C10.8059 19.4052 10.796 19.4203 10.7286 19.4203C10.6693 19.4203 10.6525 19.4361 10.6525 19.4924C10.6525 19.5401 10.6304 19.5702 10.5879 19.5812C10.5522 19.5901 10.5159 19.6246 10.5071 19.6575C10.4981 19.6906 10.4632 19.7246 10.4291 19.7333C10.3951 19.7419 10.3601 19.776 10.3511 19.8091C10.3423 19.842 10.3071 19.8762 10.2733 19.8847C10.2392 19.8935 10.2041 19.928 10.1949 19.9616C10.1859 19.9953 10.1483 20.0269 10.1115 20.032C10.0695 20.0378 10.0407 20.0669 10.0346 20.1094C10.0274 20.1589 10.0037 20.1776 9.94888 20.1776C9.88882 20.1776 9.87311 20.1934 9.87311 20.2534C9.87311 20.3241 9.86263 20.3292 9.71708 20.3292C9.57172 20.3292 9.56124 20.3341 9.56124 20.4048C9.56124 20.4801 9.55918 20.4807 9.27987 20.4807C9.00842 20.4807 8.99738 20.4834 8.96876 20.5565L8.9392 20.6321H8.47074H8.00229V20.5565C8.00229 20.4823 7.99705 20.4807 7.76844 20.4807C7.53964 20.4807 7.53459 20.479 7.53459 20.4048C7.53459 20.3341 7.52411 20.3292 7.37856 20.3292C7.2332 20.3292 7.22272 20.3241 7.22272 20.2534C7.22272 20.1949 7.20663 20.1776 7.15219 20.1776C7.10898 20.1776 7.06969 20.1512 7.05079 20.1094C7.02704 20.0569 6.98981 20.0393 6.88747 20.032C6.77036 20.0238 6.75502 20.0142 6.75502 19.9487C6.75502 19.89 6.73893 19.8747 6.67701 19.8747C6.61471 19.8747 6.59918 19.8595 6.59918 19.7989C6.59918 19.7388 6.58346 19.7231 6.52285 19.7231C6.454 19.7231 6.44577 19.7091 6.43717 19.5793C6.42893 19.4564 6.41734 19.4339 6.35747 19.4257C6.30677 19.4186 6.28731 19.3957 6.28731 19.3423C6.28731 19.2839 6.27104 19.2687 6.2093 19.2687C6.13653 19.2687 6.13148 19.2587 6.13148 19.1172C6.13148 18.9765 6.12605 18.9658 6.05458 18.9658C5.97919 18.9658 5.97769 18.9607 5.9689 18.6855C5.96067 18.4281 5.95412 18.4028 5.88977 18.3753L5.81961 18.3453V16.9912V15.6372L5.88977 15.6274C5.95637 15.6183 5.9603 15.6027 5.9689 15.3223C5.97769 15.0309 5.97882 15.0269 6.05458 15.0269C6.12605 15.0269 6.13148 15.0162 6.13148 14.8755C6.13148 14.7341 6.13653 14.7239 6.2093 14.7239C6.28208 14.7239 6.28731 14.7139 6.28731 14.5725C6.28731 14.431 6.29255 14.421 6.36533 14.421C6.42763 14.421 6.44315 14.4058 6.44315 14.3452C6.44315 14.2847 6.45887 14.2694 6.52117 14.2694C6.5829 14.2694 6.59918 14.2541 6.59918 14.1958C6.59918 14.1425 6.61845 14.1194 6.66933 14.1125C6.71367 14.1064 6.74305 14.0785 6.74922 14.0365C6.75521 13.9953 6.78458 13.9667 6.82704 13.9607C6.87026 13.9547 6.89907 13.9264 6.90525 13.8831C6.91254 13.8338 6.93611 13.8149 6.99112 13.8149C7.05061 13.8149 7.06688 13.7991 7.06688 13.741C7.06688 13.6755 7.08222 13.6659 7.19934 13.6577C7.30074 13.6506 7.3389 13.6326 7.36191 13.5815C7.38474 13.5314 7.42327 13.5126 7.51794 13.5059C7.6126 13.4992 7.65114 13.4803 7.67396 13.4299C7.69997 13.3723 7.73215 13.3617 7.90781 13.3541C8.08442 13.3465 8.11548 13.3363 8.14223 13.2772C8.17179 13.2116 8.18825 13.209 8.56877 13.209C8.95547 13.209 8.96464 13.2107 8.97437 13.2772ZM33.6948 13.2848C33.6948 13.3588 33.7 13.3605 33.9286 13.3605C34.1572 13.3605 34.1625 13.3623 34.1625 13.4363C34.1625 13.5057 34.1741 13.5121 34.3005 13.5121C34.4201 13.5121 34.4401 13.5212 34.4487 13.5803C34.4558 13.629 34.4829 13.6511 34.5445 13.6579C34.6047 13.6646 34.6302 13.6848 34.6302 13.7255C34.6302 13.7622 34.659 13.7906 34.7082 13.8026C34.7566 13.8144 34.786 13.8431 34.786 13.8784C34.786 13.9135 34.8156 13.9422 34.864 13.954C34.9115 13.9656 34.942 13.9947 34.942 14.0284C34.942 14.0587 34.9686 14.0918 35.0012 14.1018C35.0339 14.112 35.0693 14.1538 35.0797 14.1949C35.0919 14.2416 35.1213 14.2694 35.1587 14.2694C35.1967 14.2694 35.2219 14.2941 35.2283 14.3376C35.2346 14.3809 35.2633 14.4092 35.3067 14.4152C35.3645 14.4232 35.3766 14.447 35.3847 14.5668C35.3927 14.6877 35.4045 14.7103 35.4642 14.7184C35.5278 14.7273 35.5343 14.7446 35.5343 14.9053C35.5343 15.1217 35.5546 15.1784 35.6313 15.1784C35.6885 15.1784 35.6904 15.23 35.6904 16.8448C35.6904 18.4597 35.6885 18.5113 35.6313 18.5113C35.5544 18.5113 35.5343 18.568 35.5343 18.7864C35.5343 18.9422 35.5267 18.9658 35.4754 18.9658C35.4064 18.9658 35.3785 19.0223 35.3785 19.163C35.3785 19.2452 35.3652 19.2663 35.3083 19.2741C35.2485 19.2825 35.2369 19.305 35.2287 19.4277C35.22 19.5577 35.2118 19.5717 35.143 19.5717C35.0824 19.5717 35.0666 19.5873 35.0666 19.6475C35.0666 19.708 35.0511 19.7231 34.9888 19.7231C34.9263 19.7231 34.9108 19.7384 34.9108 19.7989C34.9108 19.8595 34.8953 19.8747 34.8328 19.8747C34.7705 19.8747 34.755 19.8898 34.755 19.9504C34.755 20.0187 34.7424 20.0262 34.6294 20.0262C34.5243 20.0262 34.499 20.0384 34.4743 20.102C34.4562 20.1483 34.4201 20.1776 34.3815 20.1776C34.335 20.1776 34.3183 20.1976 34.3183 20.2534C34.3183 20.3241 34.308 20.3292 34.1625 20.3292C34.0175 20.3292 34.0066 20.3343 34.0066 20.4039V20.4788L33.6246 20.4874C33.2553 20.4956 33.2424 20.4981 33.2327 20.5639C33.225 20.6164 33.2024 20.6321 33.1335 20.6321C33.0647 20.6321 33.042 20.6164 33.0344 20.5639C33.0246 20.4981 33.0117 20.4956 32.6424 20.4874L32.2604 20.4788V20.4039C32.2604 20.3345 32.2494 20.3292 32.1068 20.3292C31.971 20.3292 31.9519 20.3212 31.9431 20.261C31.9345 20.2029 31.9113 20.1914 31.785 20.1836C31.6513 20.1752 31.6369 20.1671 31.6369 20.1003C31.6369 20.0414 31.6208 20.0262 31.5589 20.0262C31.4966 20.0262 31.481 20.0111 31.481 19.9504C31.481 19.8904 31.4653 19.8747 31.4053 19.8747C31.3503 19.8747 31.3267 19.8558 31.3194 19.8066C31.313 19.7628 31.2844 19.7349 31.2393 19.7286C31.1886 19.7217 31.1692 19.6986 31.1692 19.6453C31.1692 19.587 31.1529 19.5717 31.0912 19.5717C31.0289 19.5717 31.0133 19.5566 31.0133 19.4959C31.0133 19.4357 30.9976 19.4203 30.937 19.4203C30.8682 19.4203 30.8599 19.4063 30.8513 19.2763C30.8431 19.1534 30.8315 19.131 30.7716 19.1227C30.7097 19.1141 30.7015 19.0954 30.7015 18.9636C30.7015 18.8245 30.696 18.8142 30.6235 18.8142C30.5507 18.8142 30.5456 18.8042 30.5456 18.6627C30.5456 18.5213 30.5404 18.5113 30.4676 18.5113H30.3896V18.1483C30.3896 17.7863 30.3894 17.7852 30.3118 17.7662L30.2338 17.7473V16.9174V16.0873H30.3118C30.3896 16.0873 30.3896 16.0871 30.3896 15.7877C30.3896 15.4932 30.3911 15.4876 30.4676 15.4691C30.5415 15.4511 30.5456 15.4389 30.5456 15.2384C30.5456 15.0331 30.5479 15.0269 30.6235 15.0269C30.696 15.0269 30.7015 15.0168 30.7015 14.8775C30.7015 14.7457 30.7097 14.727 30.7716 14.7184C30.8315 14.7103 30.8431 14.6877 30.8513 14.5648C30.8599 14.435 30.8682 14.421 30.937 14.421C30.9976 14.421 31.0133 14.4054 31.0133 14.3452C31.0133 14.2847 31.0289 14.2694 31.0912 14.2694C31.1527 14.2694 31.1692 14.2541 31.1692 14.1971C31.1692 14.1451 31.1912 14.1193 31.2472 14.1056C31.2956 14.0938 31.325 14.0651 31.325 14.0298C31.325 13.9946 31.3546 13.9658 31.403 13.954C31.4522 13.942 31.481 13.9137 31.481 13.8771C31.481 13.8402 31.5063 13.8157 31.5512 13.8095C31.5963 13.8033 31.6249 13.7755 31.6313 13.7317C31.6384 13.6824 31.6621 13.6635 31.7169 13.6635C31.777 13.6635 31.7927 13.6477 31.7927 13.5877C31.7927 13.517 31.8032 13.5121 31.9487 13.5121C32.0941 13.5121 32.1046 13.507 32.1046 13.4363C32.1046 13.3623 32.1098 13.3605 32.3384 13.3605C32.567 13.3605 32.5723 13.3588 32.5723 13.2848V13.209H33.1335H33.6948V13.2848ZM46.4476 13.2848C46.4476 13.3556 46.4579 13.3605 46.6034 13.3605C46.749 13.3605 46.7592 13.3656 46.7592 13.4363C46.7592 13.507 46.7697 13.5121 46.9153 13.5121C47.0606 13.5121 47.0711 13.517 47.0711 13.5877C47.0711 13.6484 47.0866 13.6635 47.1491 13.6635C47.2114 13.6635 47.2269 13.6786 47.2269 13.7393C47.2269 13.7999 47.2427 13.8149 47.305 13.8149C47.3673 13.8149 47.383 13.8302 47.383 13.8907C47.383 13.9513 47.3985 13.9666 47.4608 13.9666C47.5233 13.9666 47.5388 13.9816 47.5388 14.0422C47.5388 14.1029 47.5543 14.118 47.6168 14.118C47.6791 14.118 47.6946 14.1331 47.6946 14.1938C47.6946 14.2543 47.7104 14.2694 47.7727 14.2694C47.8454 14.2694 47.8507 14.2796 47.8507 14.421C47.8507 14.5616 47.8561 14.5725 47.9272 14.5725C48.0007 14.5725 48.0041 14.5816 48.0129 14.7921C48.0213 14.9937 48.0278 15.0126 48.0922 15.0215L48.1624 15.0311V16.847V18.6627H48.0845C48.0119 18.6627 48.0065 18.6729 48.0065 18.8122C48.0065 18.944 47.9983 18.9627 47.9364 18.9712C47.8765 18.9794 47.8649 19.002 47.8567 19.1249C47.8481 19.2547 47.8398 19.2687 47.771 19.2687C47.7104 19.2687 47.6946 19.2843 47.6946 19.3445C47.6946 19.405 47.6791 19.4203 47.6168 19.4203C47.5551 19.4203 47.5388 19.4355 47.5388 19.4939C47.5388 19.5472 47.5194 19.5702 47.4687 19.5772C47.4243 19.5833 47.3949 19.6111 47.3888 19.6531C47.3828 19.6944 47.3534 19.7229 47.3108 19.7289C47.2677 19.7349 47.2389 19.7633 47.2326 19.8066C47.2254 19.8558 47.2017 19.8747 47.1469 19.8747C47.0874 19.8747 47.0711 19.8906 47.0711 19.9487C47.0711 20.0156 47.0567 20.0238 46.9229 20.0322C46.7967 20.04 46.7735 20.0513 46.7649 20.1094C46.7561 20.1696 46.737 20.1776 46.6012 20.1776C46.458 20.1776 46.4476 20.1829 46.4476 20.2534V20.3292H45.6525H44.8574V20.2534C44.8574 20.184 44.8458 20.1776 44.7191 20.1776C44.5996 20.1776 44.5797 20.1685 44.5711 20.1094C44.5625 20.0513 44.5393 20.04 44.4131 20.0322C44.2793 20.0238 44.2649 20.0156 44.2649 19.9487C44.2649 19.89 44.2488 19.8747 44.1869 19.8747C44.1246 19.8747 44.109 19.8595 44.109 19.7989C44.109 19.7384 44.0933 19.7231 44.031 19.7231C43.9687 19.7231 43.953 19.708 43.953 19.6475C43.953 19.5868 43.9375 19.5717 43.8752 19.5717C43.8127 19.5717 43.7972 19.5566 43.7972 19.4959C43.7972 19.4363 43.7813 19.4203 43.7227 19.4203C43.6586 19.4203 43.6455 19.4017 43.6275 19.2854C43.6131 19.1912 43.5891 19.145 43.548 19.1325C43.5158 19.1225 43.4849 19.0843 43.4795 19.0476C43.4733 19.0052 43.4442 18.9774 43.3996 18.9712C43.3409 18.9631 43.3295 18.9427 43.3295 18.8462C43.3295 18.6597 43.2952 18.5448 43.2339 18.5257C43.1914 18.5126 43.1744 18.472 43.1675 18.3659C43.1594 18.2446 43.1476 18.2219 43.0878 18.2137C43.0191 18.2043 43.0176 18.1959 43.0176 17.7996C43.0176 17.3531 43.0073 17.2993 42.9209 17.2993C42.8199 17.2993 42.8309 16.3989 42.9319 16.3849C42.9996 16.3755 43.0025 16.3629 43.0109 16.0059C43.0185 15.6772 43.026 15.6345 43.0773 15.6187C43.1459 15.5974 43.1736 15.4838 43.1736 15.2222C43.1736 15.0471 43.1794 15.0304 43.2438 15.0215C43.3035 15.0133 43.3153 14.9906 43.3233 14.8697C43.3313 14.7501 43.3435 14.7263 43.4013 14.7183C43.4593 14.7103 43.4713 14.6866 43.4793 14.5648C43.4879 14.435 43.4962 14.421 43.565 14.421C43.6256 14.421 43.6413 14.4054 43.6413 14.3452C43.6413 14.29 43.658 14.2694 43.7031 14.2694C43.7427 14.2694 43.7717 14.2427 43.7841 14.1949C43.7947 14.1538 43.8301 14.112 43.8627 14.1018C43.8952 14.0918 43.922 14.0587 43.922 14.0284C43.922 13.9947 43.9523 13.9656 43.9998 13.954C44.049 13.942 44.0778 13.9137 44.0778 13.8771C44.0778 13.8362 44.1032 13.8162 44.1635 13.8095C44.2241 13.8026 44.2522 13.7804 44.2591 13.7335C44.2651 13.6922 44.2944 13.6637 44.3369 13.6579C44.3801 13.6519 44.4089 13.6233 44.4151 13.5803C44.4237 13.5212 44.4437 13.5121 44.5627 13.5121C44.6828 13.5121 44.7027 13.5026 44.7195 13.4375C44.7371 13.3692 44.7552 13.3625 44.946 13.3543C45.1343 13.3463 45.1545 13.339 45.1634 13.2772C45.1735 13.209 45.1735 13.209 45.8106 13.209H46.4476V13.2848ZM72.3193 19.6826C72.2721 19.7068 72.2347 19.7428 72.236 19.7628C72.2379 19.7891 72.2427 19.7886 72.2542 19.7611C72.263 19.7402 72.2882 19.7231 72.3103 19.7231C72.3326 19.7231 72.3681 19.7028 72.3894 19.6777C72.4349 19.6246 72.4323 19.6248 72.3193 19.6826ZM69.7185 21.382C69.737 21.4116 69.658 21.4825 69.6333 21.4585C69.6229 21.4483 69.6144 21.456 69.6144 21.4754C69.6144 21.5239 69.6719 21.5198 69.7258 21.4676C69.7781 21.4167 69.7843 21.3592 69.7374 21.3592C69.7192 21.3592 69.7106 21.3696 69.7185 21.382ZM69.0987 21.8421C69.1086 21.8575 69.0852 21.8915 69.0468 21.9177C69.0083 21.9439 68.9952 21.9653 69.0173 21.9653C69.0661 21.9653 69.1467 21.8912 69.1467 21.8463C69.1467 21.8284 69.132 21.8137 69.1136 21.8137C69.0955 21.8137 69.0887 21.8264 69.0987 21.8421ZM68.0074 22.5994C68.0171 22.6151 67.9939 22.649 67.9554 22.6752C67.917 22.7014 67.9038 22.7227 67.926 22.7227C67.9749 22.7227 68.0555 22.6487 68.0555 22.6038C68.0555 22.5858 68.0405 22.5712 68.0224 22.5712C68.0042 22.5712 67.9975 22.584 68.0074 22.5994ZM67.2774 22.8343C67.2711 22.9959 67.4353 23.0873 67.5433 22.9825C67.5956 22.9316 67.6016 22.8743 67.5547 22.8743C67.5365 22.8743 67.5294 22.8863 67.5388 22.901C67.564 22.9406 67.4856 22.9934 67.4164 22.9834C67.3833 22.9786 67.3388 22.9352 67.3175 22.8867C67.2961 22.8381 67.2782 22.8147 67.2774 22.8343Z" fill="black"/>
<path fill-rule="evenodd" clip-rule="evenodd" d="M72.2334 2.31041C72.2334 2.35985 72.3088 2.36294 72.3494 2.31513C72.3628 2.2995 72.361 2.29659 72.3454 2.30895C72.3297 2.32131 72.2983 2.31622 72.2753 2.29768C72.2433 2.27205 72.2334 2.27496 72.2334 2.31041ZM69.7521 2.58473C69.7263 2.63872 69.7278 2.65508 69.7585 2.65508C69.7806 2.65508 69.792 2.64472 69.7839 2.63199C69.7757 2.61927 69.7834 2.60036 69.8008 2.58982C69.8376 2.56782 69.8436 2.51365 69.8092 2.51401C69.7963 2.51419 69.7706 2.54601 69.7521 2.58473ZM66.388 3.00739C66.3747 3.03739 66.3725 3.07029 66.3832 3.08065C66.415 3.11138 66.4404 3.06811 66.4258 3.00848C66.4129 2.95558 66.4112 2.95558 66.388 3.00739ZM60.8036 3.76891C60.7705 3.79236 60.7505 3.81854 60.7591 3.82672C60.7677 3.83508 60.8018 3.82272 60.8347 3.79927C60.8678 3.77582 60.8878 3.74982 60.8792 3.74146C60.8706 3.7331 60.8366 3.74546 60.8036 3.76891ZM58.5764 4.05905C58.5764 4.07559 58.5553 4.08923 58.5297 4.08923C58.5038 4.08923 58.484 4.11322 58.4853 4.14231C58.4866 4.1714 58.4947 4.17903 58.5029 4.15922C58.5113 4.13922 58.5383 4.13049 58.5628 4.13976C58.5931 4.15085 58.6077 4.13558 58.6077 4.0925C58.6077 4.05741 58.6006 4.02869 58.592 4.02869C58.5834 4.02869 58.5764 4.04232 58.5764 4.05905ZM57.476 4.24084C57.467 4.27411 57.4725 4.30138 57.488 4.30138C57.5035 4.30138 57.5162 4.29574 57.5162 4.28865C57.5162 4.28174 57.5248 4.25447 57.5351 4.22811C57.5456 4.20175 57.5402 4.18012 57.5233 4.18012C57.5063 4.18012 57.485 4.20739 57.476 4.24084ZM72.2802 6.5434C72.2384 6.56085 72.2332 6.5703 72.2646 6.57176C72.2925 6.57321 72.2742 6.59793 72.2194 6.6332C72.1374 6.68556 72.1348 6.69156 72.196 6.68701C72.2336 6.68429 72.2646 6.67047 72.2646 6.65647C72.2646 6.64229 72.2787 6.6392 72.2957 6.64956C72.3129 6.65974 72.3269 6.64702 72.3269 6.62102C72.3269 6.59503 72.341 6.57376 72.3582 6.57376C72.3752 6.57376 72.3892 6.56012 72.3892 6.5434C72.3892 6.50795 72.3653 6.50795 72.2802 6.5434ZM59.6507 7.78575C59.6507 8.3773 59.6548 8.61926 59.6598 8.32349C59.6651 8.02772 59.6651 7.54361 59.6598 7.24784C59.6548 6.95206 59.6507 7.19403 59.6507 7.78575ZM72.2459 8.95412C72.2459 9.01357 72.2614 9.02756 72.3254 9.02593L72.4049 9.02411L72.3327 8.99593C72.2931 8.98048 72.2687 8.95503 72.2787 8.9394C72.2886 8.92376 72.2854 8.90413 72.2714 8.89558C72.2573 8.88722 72.2459 8.91358 72.2459 8.95412ZM67.2911 15.9511C67.2911 19.7339 67.2946 21.2859 67.2991 19.4C67.3036 17.5141 67.3036 14.4191 67.2991 12.5223C67.2946 10.6253 67.2911 12.1684 67.2911 15.9511ZM72.3269 19.6341C72.3269 19.6685 72.341 19.6881 72.3582 19.6778C72.3752 19.6676 72.3892 19.6394 72.3892 19.6154C72.3892 19.5914 72.3752 19.5718 72.3582 19.5718C72.341 19.5718 72.3269 19.5998 72.3269 19.6341ZM68.7411 22.075C68.7411 22.1154 68.7497 22.1174 68.7879 22.0865C68.8137 22.0658 68.8347 22.0438 68.8347 22.0374C68.8347 22.031 68.8137 22.0259 68.7879 22.0259C68.7623 22.0259 68.7411 22.0481 68.7411 22.075ZM64.3702 22.9414C64.3241 22.9878 64.297 23.0258 64.3101 23.0258C64.3397 23.0258 64.485 22.8778 64.4671 22.8658C64.4598 22.8611 64.4162 22.8953 64.3702 22.9414Z" fill="black"/>
<path fill-rule="evenodd" clip-rule="evenodd" d="M60.8004 8.86871C61.432 8.87326 62.4563 8.87326 63.0767 8.86871C63.697 8.86417 63.1803 8.86035 61.9285 8.86035C60.6766 8.86035 60.169 8.86417 60.8004 8.86871ZM68.7204 8.86871C69.3518 8.87326 70.376 8.87326 70.9964 8.86871C71.6167 8.86417 71.1002 8.86035 69.8483 8.86035C68.5963 8.86035 68.0888 8.86417 68.7204 8.86871ZM53.6285 23.018C53.8309 23.0233 54.1536 23.0233 54.3456 23.018C54.5375 23.0125 54.3719 23.0084 53.9776 23.0084C53.583 23.0084 53.4261 23.0127 53.6285 23.018ZM59.611 23.018C60.4457 23.0225 61.8208 23.0225 62.6666 23.018C63.5126 23.0136 62.8295 23.0098 61.149 23.0098C59.4684 23.0098 58.7762 23.0136 59.611 23.018Z" fill="black"/>
<path fill-rule="evenodd" clip-rule="evenodd" d="M72.4037 4.45267C72.4037 5.54414 72.4076 5.9908 72.4123 5.44507C72.4172 4.89933 72.4172 4.0062 72.4123 3.46046C72.4076 2.91473 72.4037 3.3612 72.4037 4.45267ZM62.7596 6.7176C64.4688 6.72178 67.275 6.72178 68.9956 6.7176C70.7162 6.71324 69.3178 6.7096 65.8878 6.7096C62.4581 6.7096 61.0503 6.71324 62.7596 6.7176ZM72.4043 14.2846C72.4043 17.1175 72.4078 18.2809 72.4123 16.8699C72.4168 15.459 72.4168 13.1412 72.4123 11.7192C72.4078 10.2972 72.4043 11.4516 72.4043 14.2846Z" fill="black"/>
</g>
<defs>
<clipPath id="clip0">
<rect width="70" height="28" fill="white"/>
</clipPath>
</defs>
</svg>
